M48
; DRILL file {KiCad (5.1.7)-1} date 04/30/21 22:34:59
; FORMAT={-:-/ absolute / inch / decimal}
; #@! TF.CreationDate,2021-04-30T22:34:59+08:00
; #@! TF.GenerationSoftware,Kicad,Pcbnew,(5.1.7)-1
; #@! TF.FileFunction,Plated,1,2,PTH
FMAT,2
INCH
T1C0.0118
T2C0.0236
T3C0.0394
T4C0.0669
%
G90
G05
T1
X1.88Y-2.95
X1.8976Y-2.9075
X1.8976Y-2.86
X2.0Y-3.1
X2.02Y-2.79
X2.3Y-3.02
X2.37Y-2.81
X2.4Y-2.96
X2.44Y-2.8
T2
X1.69Y-2.59
X1.76Y-2.59
X1.83Y-2.59
X1.92Y-2.59
X1.99Y-2.59
X2.06Y-2.59
X2.51Y-2.75
X2.61Y-2.63
X2.7Y-2.85
X2.7Y-2.89
X2.7Y-2.93
X3.05Y-2.59
X3.12Y-2.59
X3.19Y-2.59
X3.26Y-2.59
X3.3031Y-2.9731
X3.33Y-2.59
X3.4Y-2.59
X3.48Y-2.59
X3.48Y-2.66
X3.48Y-2.73
X3.52Y-3.22
X3.54Y-2.59
X3.54Y-2.66
X3.54Y-2.73
T3
X2.089Y-2.9075
X2.0902Y-2.8315
X2.0902Y-2.9835
T4
X3.45Y-2.9
X3.45Y-3.0559
T2
G00X1.7695Y-2.7276
M15
G01X1.7459Y-2.7276
M16
G05
G00X1.7695Y-3.0677
M15
G01X1.7459Y-3.0677
M16
G05
G00X1.9439Y-2.7276
M15
G01X1.9006Y-2.7276
M16
G05
G00X1.9439Y-3.0677
M15
G01X1.9006Y-3.0677
M16
G05
T3
G00X1.7772Y-2.6516
M15
G01X1.8165Y-2.6516
M16
G05
G00X1.7772Y-3.1594
M15
G01X1.8165Y-3.1594
M16
G05
G00X2.035Y-2.6516
M15
G01X2.0744Y-2.6516
M16
G05
G00X2.035Y-3.1594
M15
G01X2.0744Y-3.1594
M16
G05
G00X2.0902Y-2.7205
M15
G01X2.0902Y-2.7598
M16
G05
G00X2.0902Y-3.0531
M15
G01X2.0902Y-3.0925
M16
G05
T0
M30
