%TF.GenerationSoftware,KiCad,Pcbnew,(5.1.7)-1*%
%TF.CreationDate,2021-04-30T22:35:11+08:00*%
%TF.ProjectId,t12_pps_power,7431325f-7070-4735-9f70-6f7765722e6b,rev?*%
%TF.SameCoordinates,Original*%
%TF.FileFunction,Soldermask,Bot*%
%TF.FilePolarity,Negative*%
%FSLAX46Y46*%
G04 Gerber Fmt 4.6, Leading zero omitted, Abs format (unit mm)*
G04 Created by KiCad (PCBNEW (5.1.7)-1) date 2021-04-30 22:35:11*
%MOMM*%
%LPD*%
G01*
G04 APERTURE LIST*
%ADD10R,3.500000X4.000000*%
%ADD11O,2.500000X1.500000*%
%ADD12O,1.750000X2.750000*%
%ADD13C,1.500000*%
%ADD14O,2.100000X1.000000*%
%ADD15O,1.600000X1.000000*%
%ADD16C,0.650000*%
%ADD17C,2.700000*%
G04 APERTURE END LIST*
D10*
%TO.C,L1*%
X65850000Y-73660000D03*
X73850000Y-73660000D03*
%TD*%
%TO.C,C2*%
G36*
G01*
X59140000Y-66670000D02*
X60240000Y-66670000D01*
G75*
G02*
X60490000Y-66920000I0J-250000D01*
G01*
X60490000Y-69920000D01*
G75*
G02*
X60240000Y-70170000I-250000J0D01*
G01*
X59140000Y-70170000D01*
G75*
G02*
X58890000Y-69920000I0J250000D01*
G01*
X58890000Y-66920000D01*
G75*
G02*
X59140000Y-66670000I250000J0D01*
G01*
G37*
G36*
G01*
X59140000Y-72070000D02*
X60240000Y-72070000D01*
G75*
G02*
X60490000Y-72320000I0J-250000D01*
G01*
X60490000Y-75320000D01*
G75*
G02*
X60240000Y-75570000I-250000J0D01*
G01*
X59140000Y-75570000D01*
G75*
G02*
X58890000Y-75320000I0J250000D01*
G01*
X58890000Y-72320000D01*
G75*
G02*
X59140000Y-72070000I250000J0D01*
G01*
G37*
%TD*%
%TO.C,C3*%
G36*
G01*
X61943000Y-80576000D02*
X60993000Y-80576000D01*
G75*
G02*
X60743000Y-80326000I0J250000D01*
G01*
X60743000Y-79651000D01*
G75*
G02*
X60993000Y-79401000I250000J0D01*
G01*
X61943000Y-79401000D01*
G75*
G02*
X62193000Y-79651000I0J-250000D01*
G01*
X62193000Y-80326000D01*
G75*
G02*
X61943000Y-80576000I-250000J0D01*
G01*
G37*
G36*
G01*
X61943000Y-82651000D02*
X60993000Y-82651000D01*
G75*
G02*
X60743000Y-82401000I0J250000D01*
G01*
X60743000Y-81726000D01*
G75*
G02*
X60993000Y-81476000I250000J0D01*
G01*
X61943000Y-81476000D01*
G75*
G02*
X62193000Y-81726000I0J-250000D01*
G01*
X62193000Y-82401000D01*
G75*
G02*
X61943000Y-82651000I-250000J0D01*
G01*
G37*
%TD*%
%TO.C,C4*%
G36*
G01*
X79460000Y-77150000D02*
X80560000Y-77150000D01*
G75*
G02*
X80810000Y-77400000I0J-250000D01*
G01*
X80810000Y-80400000D01*
G75*
G02*
X80560000Y-80650000I-250000J0D01*
G01*
X79460000Y-80650000D01*
G75*
G02*
X79210000Y-80400000I0J250000D01*
G01*
X79210000Y-77400000D01*
G75*
G02*
X79460000Y-77150000I250000J0D01*
G01*
G37*
G36*
G01*
X79460000Y-71750000D02*
X80560000Y-71750000D01*
G75*
G02*
X80810000Y-72000000I0J-250000D01*
G01*
X80810000Y-75000000D01*
G75*
G02*
X80560000Y-75250000I-250000J0D01*
G01*
X79460000Y-75250000D01*
G75*
G02*
X79210000Y-75000000I0J250000D01*
G01*
X79210000Y-72000000D01*
G75*
G02*
X79460000Y-71750000I250000J0D01*
G01*
G37*
%TD*%
%TO.C,C5*%
G36*
G01*
X78385000Y-70325000D02*
X78385000Y-69375000D01*
G75*
G02*
X78635000Y-69125000I250000J0D01*
G01*
X79310000Y-69125000D01*
G75*
G02*
X79560000Y-69375000I0J-250000D01*
G01*
X79560000Y-70325000D01*
G75*
G02*
X79310000Y-70575000I-250000J0D01*
G01*
X78635000Y-70575000D01*
G75*
G02*
X78385000Y-70325000I0J250000D01*
G01*
G37*
G36*
G01*
X80460000Y-70325000D02*
X80460000Y-69375000D01*
G75*
G02*
X80710000Y-69125000I250000J0D01*
G01*
X81385000Y-69125000D01*
G75*
G02*
X81635000Y-69375000I0J-250000D01*
G01*
X81635000Y-70325000D01*
G75*
G02*
X81385000Y-70575000I-250000J0D01*
G01*
X80710000Y-70575000D01*
G75*
G02*
X80460000Y-70325000I0J250000D01*
G01*
G37*
%TD*%
D11*
%TO.C,J1*%
X52190000Y-80250000D03*
X45640000Y-80250000D03*
X45640000Y-67350000D03*
X52190000Y-67350000D03*
D12*
X53090000Y-69600000D03*
X53090000Y-78050000D03*
D13*
X53060000Y-73850000D03*
X53090000Y-71920000D03*
X53090000Y-75780000D03*
%TD*%
D14*
%TO.C,J2*%
X48825000Y-69280000D03*
X48825000Y-77920000D03*
D15*
X44645000Y-69280000D03*
X44645000Y-77920000D03*
D16*
X48325000Y-76490000D03*
X48325000Y-70710000D03*
%TD*%
%TO.C,J4*%
G36*
G01*
X86530001Y-72310000D02*
X88729999Y-72310000D01*
G75*
G02*
X88980000Y-72560001I0J-250001D01*
G01*
X88980000Y-74759999D01*
G75*
G02*
X88729999Y-75010000I-250001J0D01*
G01*
X86530001Y-75010000D01*
G75*
G02*
X86280000Y-74759999I0J250001D01*
G01*
X86280000Y-72560001D01*
G75*
G02*
X86530001Y-72310000I250001J0D01*
G01*
G37*
D17*
X87630000Y-77620000D03*
%TD*%
M02*
