%TF.GenerationSoftware,KiCad,Pcbnew,(5.1.7)-1*%
%TF.CreationDate,2021-05-02T00:17:45+08:00*%
%TF.ProjectId,t12_pps_power,7431325f-7070-4735-9f70-6f7765722e6b,rev?*%
%TF.SameCoordinates,Original*%
%TF.FileFunction,Paste,Top*%
%TF.FilePolarity,Positive*%
%FSLAX46Y46*%
G04 Gerber Fmt 4.6, Leading zero omitted, Abs format (unit mm)*
G04 Created by KiCad (PCBNEW (5.1.7)-1) date 2021-05-02 00:17:45*
%MOMM*%
%LPD*%
G01*
G04 APERTURE LIST*
%ADD10R,2.500000X1.800000*%
%ADD11R,1.150000X0.300000*%
%ADD12R,4.600000X1.100000*%
%ADD13R,4.550000X5.250000*%
%ADD14R,1.100000X0.510000*%
G04 APERTURE END LIST*
%TO.C,C1*%
G36*
G01*
X59365000Y-70325000D02*
X59365000Y-69375000D01*
G75*
G02*
X59615000Y-69125000I250000J0D01*
G01*
X60290000Y-69125000D01*
G75*
G02*
X60540000Y-69375000I0J-250000D01*
G01*
X60540000Y-70325000D01*
G75*
G02*
X60290000Y-70575000I-250000J0D01*
G01*
X59615000Y-70575000D01*
G75*
G02*
X59365000Y-70325000I0J250000D01*
G01*
G37*
G36*
G01*
X61440000Y-70325000D02*
X61440000Y-69375000D01*
G75*
G02*
X61690000Y-69125000I250000J0D01*
G01*
X62365000Y-69125000D01*
G75*
G02*
X62615000Y-69375000I0J-250000D01*
G01*
X62615000Y-70325000D01*
G75*
G02*
X62365000Y-70575000I-250000J0D01*
G01*
X61690000Y-70575000D01*
G75*
G02*
X61440000Y-70325000I0J250000D01*
G01*
G37*
%TD*%
D10*
%TO.C,D1*%
X73120000Y-67310000D03*
X69120000Y-67310000D03*
%TD*%
D11*
%TO.C,J2*%
X49390000Y-76650000D03*
X49390000Y-75850000D03*
X49390000Y-75350000D03*
X49390000Y-74850000D03*
X49390000Y-74350000D03*
X49390000Y-73850000D03*
X49390000Y-73350000D03*
X49390000Y-72850000D03*
X49390000Y-72350000D03*
X49390000Y-71850000D03*
X49390000Y-71050000D03*
X49390000Y-70250000D03*
X49390000Y-70550000D03*
X49390000Y-71350000D03*
X49390000Y-76150000D03*
X49390000Y-76950000D03*
%TD*%
%TO.C,R1*%
G36*
G01*
X73260000Y-69399999D02*
X73260000Y-70300001D01*
G75*
G02*
X73010001Y-70550000I-249999J0D01*
G01*
X72309999Y-70550000D01*
G75*
G02*
X72060000Y-70300001I0J249999D01*
G01*
X72060000Y-69399999D01*
G75*
G02*
X72309999Y-69150000I249999J0D01*
G01*
X73010001Y-69150000D01*
G75*
G02*
X73260000Y-69399999I0J-249999D01*
G01*
G37*
G36*
G01*
X75260000Y-69399999D02*
X75260000Y-70300001D01*
G75*
G02*
X75010001Y-70550000I-249999J0D01*
G01*
X74309999Y-70550000D01*
G75*
G02*
X74060000Y-70300001I0J249999D01*
G01*
X74060000Y-69399999D01*
G75*
G02*
X74309999Y-69150000I249999J0D01*
G01*
X75010001Y-69150000D01*
G75*
G02*
X75260000Y-69399999I0J-249999D01*
G01*
G37*
%TD*%
%TO.C,R2*%
G36*
G01*
X79324000Y-69399999D02*
X79324000Y-70300001D01*
G75*
G02*
X79074001Y-70550000I-249999J0D01*
G01*
X78373999Y-70550000D01*
G75*
G02*
X78124000Y-70300001I0J249999D01*
G01*
X78124000Y-69399999D01*
G75*
G02*
X78373999Y-69150000I249999J0D01*
G01*
X79074001Y-69150000D01*
G75*
G02*
X79324000Y-69399999I0J-249999D01*
G01*
G37*
G36*
G01*
X77324000Y-69399999D02*
X77324000Y-70300001D01*
G75*
G02*
X77074001Y-70550000I-249999J0D01*
G01*
X76373999Y-70550000D01*
G75*
G02*
X76124000Y-70300001I0J249999D01*
G01*
X76124000Y-69399999D01*
G75*
G02*
X76373999Y-69150000I249999J0D01*
G01*
X77074001Y-69150000D01*
G75*
G02*
X77324000Y-69399999I0J-249999D01*
G01*
G37*
%TD*%
%TO.C,R3*%
G36*
G01*
X62600000Y-67199999D02*
X62600000Y-68100001D01*
G75*
G02*
X62350001Y-68350000I-249999J0D01*
G01*
X61649999Y-68350000D01*
G75*
G02*
X61400000Y-68100001I0J249999D01*
G01*
X61400000Y-67199999D01*
G75*
G02*
X61649999Y-66950000I249999J0D01*
G01*
X62350001Y-66950000D01*
G75*
G02*
X62600000Y-67199999I0J-249999D01*
G01*
G37*
G36*
G01*
X60600000Y-67199999D02*
X60600000Y-68100001D01*
G75*
G02*
X60350001Y-68350000I-249999J0D01*
G01*
X59649999Y-68350000D01*
G75*
G02*
X59400000Y-68100001I0J249999D01*
G01*
X59400000Y-67199999D01*
G75*
G02*
X59649999Y-66950000I249999J0D01*
G01*
X60350001Y-66950000D01*
G75*
G02*
X60600000Y-67199999I0J-249999D01*
G01*
G37*
%TD*%
D12*
%TO.C,U1*%
X79689000Y-80616000D03*
X79689000Y-78916000D03*
X79689000Y-77216000D03*
X79689000Y-75516000D03*
X79689000Y-73816000D03*
D13*
X68114000Y-74441000D03*
X72964000Y-79991000D03*
X68114000Y-79991000D03*
X72964000Y-74441000D03*
%TD*%
D14*
%TO.C,U2*%
X63510000Y-75660000D03*
X63510000Y-74660000D03*
X63510000Y-73660000D03*
X63510000Y-72660000D03*
X58410000Y-71660000D03*
X58410000Y-72660000D03*
X58410000Y-73660000D03*
X63510000Y-71660000D03*
X58410000Y-74660000D03*
X58410000Y-75660000D03*
%TD*%
M02*
