%TF.GenerationSoftware,KiCad,Pcbnew,(5.1.7)-1*%
%TF.CreationDate,2021-05-02T00:17:45+08:00*%
%TF.ProjectId,t12_pps_power,7431325f-7070-4735-9f70-6f7765722e6b,rev?*%
%TF.SameCoordinates,Original*%
%TF.FileFunction,Legend,Bot*%
%TF.FilePolarity,Positive*%
%FSLAX46Y46*%
G04 Gerber Fmt 4.6, Leading zero omitted, Abs format (unit mm)*
G04 Created by KiCad (PCBNEW (5.1.7)-1) date 2021-05-02 00:17:45*
%MOMM*%
%LPD*%
G01*
G04 APERTURE LIST*
%ADD10C,0.120000*%
%ADD11C,0.150000*%
G04 APERTURE END LIST*
D10*
%TO.C,L1*%
X75050000Y-78860000D02*
X75050000Y-76060000D01*
X64650000Y-78860000D02*
X75050000Y-78860000D01*
X64650000Y-76060000D02*
X64650000Y-78860000D01*
X75050000Y-68460000D02*
X75050000Y-71260000D01*
X64650000Y-68460000D02*
X75050000Y-68460000D01*
X64650000Y-71260000D02*
X64650000Y-68460000D01*
%TO.C,C2*%
X57448750Y-67076250D02*
X58236250Y-67076250D01*
X57842500Y-66682500D02*
X57842500Y-67470000D01*
X62035563Y-67710000D02*
X63100000Y-68774437D01*
X57344437Y-67710000D02*
X56280000Y-68774437D01*
X57344437Y-67710000D02*
X58630000Y-67710000D01*
X62035563Y-67710000D02*
X60750000Y-67710000D01*
X63100000Y-68774437D02*
X63100000Y-74530000D01*
X56280000Y-68774437D02*
X56280000Y-74530000D01*
X56280000Y-74530000D02*
X58630000Y-74530000D01*
X63100000Y-74530000D02*
X60750000Y-74530000D01*
%TO.C,C3*%
X62203000Y-81287252D02*
X62203000Y-80764748D01*
X60733000Y-81287252D02*
X60733000Y-80764748D01*
%TO.C,C4*%
X83420000Y-79610000D02*
X81070000Y-79610000D01*
X76600000Y-79610000D02*
X78950000Y-79610000D01*
X76600000Y-73854437D02*
X76600000Y-79610000D01*
X83420000Y-73854437D02*
X83420000Y-79610000D01*
X82355563Y-72790000D02*
X81070000Y-72790000D01*
X77664437Y-72790000D02*
X78950000Y-72790000D01*
X77664437Y-72790000D02*
X76600000Y-73854437D01*
X82355563Y-72790000D02*
X83420000Y-73854437D01*
X78162500Y-71762500D02*
X78162500Y-72550000D01*
X77768750Y-72156250D02*
X78556250Y-72156250D01*
%TO.C,C5*%
X79748748Y-69115000D02*
X80271252Y-69115000D01*
X79748748Y-70585000D02*
X80271252Y-70585000D01*
%TO.C,J1*%
X44390000Y-70250000D02*
X44490000Y-70950000D01*
X44490000Y-70950000D02*
X47990000Y-71650000D01*
X43690000Y-69850000D02*
X47490000Y-69050000D01*
X47990000Y-71650000D02*
X47690000Y-71950000D01*
X43690000Y-71350000D02*
X43690000Y-69850000D01*
X47690000Y-71950000D02*
X43690000Y-71350000D01*
X47490000Y-69050000D02*
X47590000Y-69350000D01*
X47590000Y-69350000D02*
X44390000Y-70250000D01*
X47990000Y-77350000D02*
X47690000Y-77650000D01*
X44490000Y-76650000D02*
X47990000Y-77350000D01*
X44390000Y-75950000D02*
X44490000Y-76650000D01*
X47590000Y-75050000D02*
X44390000Y-75950000D01*
X47490000Y-74750000D02*
X47590000Y-75050000D01*
X43690000Y-75550000D02*
X47490000Y-74750000D01*
X43690000Y-77050000D02*
X43690000Y-75550000D01*
X47690000Y-77650000D02*
X43690000Y-77050000D01*
X54610000Y-67310000D02*
X54690000Y-67310000D01*
X54690000Y-67310000D02*
X54690000Y-80250000D01*
X54590000Y-80250000D02*
X54690000Y-80250000D01*
X41490000Y-80250000D02*
X54590000Y-80250000D01*
X41490000Y-67310000D02*
X41490000Y-80250000D01*
X54610000Y-67310000D02*
X41490000Y-67310000D01*
%TO.C,J4*%
X92540000Y-71600000D02*
X85520000Y-71600000D01*
X85520000Y-71600000D02*
X85520000Y-72800000D01*
X85520000Y-72800000D02*
X83820000Y-72800000D01*
X83820000Y-72800000D02*
X83820000Y-78480000D01*
X83820000Y-78480000D02*
X85520000Y-78480000D01*
X85520000Y-78480000D02*
X85520000Y-79680000D01*
X85520000Y-79680000D02*
X92540000Y-79680000D01*
X92540000Y-79680000D02*
X92540000Y-71600000D01*
X87630000Y-71400000D02*
X87930000Y-70800000D01*
X87930000Y-70800000D02*
X87330000Y-70800000D01*
X87330000Y-70800000D02*
X87630000Y-71400000D01*
%TO.C,L1*%
D11*
X70016666Y-80212380D02*
X70492857Y-80212380D01*
X70492857Y-79212380D01*
X69159523Y-80212380D02*
X69730952Y-80212380D01*
X69445238Y-80212380D02*
X69445238Y-79212380D01*
X69540476Y-79355238D01*
X69635714Y-79450476D01*
X69730952Y-79498095D01*
%TO.C,C2*%
X56237142Y-66635333D02*
X56284761Y-66587714D01*
X56332380Y-66444857D01*
X56332380Y-66349619D01*
X56284761Y-66206761D01*
X56189523Y-66111523D01*
X56094285Y-66063904D01*
X55903809Y-66016285D01*
X55760952Y-66016285D01*
X55570476Y-66063904D01*
X55475238Y-66111523D01*
X55380000Y-66206761D01*
X55332380Y-66349619D01*
X55332380Y-66444857D01*
X55380000Y-66587714D01*
X55427619Y-66635333D01*
X55427619Y-67016285D02*
X55380000Y-67063904D01*
X55332380Y-67159142D01*
X55332380Y-67397238D01*
X55380000Y-67492476D01*
X55427619Y-67540095D01*
X55522857Y-67587714D01*
X55618095Y-67587714D01*
X55760952Y-67540095D01*
X56332380Y-66968666D01*
X56332380Y-67587714D01*
%TO.C,C3*%
X63857142Y-80859333D02*
X63904761Y-80811714D01*
X63952380Y-80668857D01*
X63952380Y-80573619D01*
X63904761Y-80430761D01*
X63809523Y-80335523D01*
X63714285Y-80287904D01*
X63523809Y-80240285D01*
X63380952Y-80240285D01*
X63190476Y-80287904D01*
X63095238Y-80335523D01*
X63000000Y-80430761D01*
X62952380Y-80573619D01*
X62952380Y-80668857D01*
X63000000Y-80811714D01*
X63047619Y-80859333D01*
X62952380Y-81192666D02*
X62952380Y-81811714D01*
X63333333Y-81478380D01*
X63333333Y-81621238D01*
X63380952Y-81716476D01*
X63428571Y-81764095D01*
X63523809Y-81811714D01*
X63761904Y-81811714D01*
X63857142Y-81764095D01*
X63904761Y-81716476D01*
X63952380Y-81621238D01*
X63952380Y-81335523D01*
X63904761Y-81240285D01*
X63857142Y-81192666D01*
%TO.C,C4*%
X83415142Y-80859333D02*
X83462761Y-80811714D01*
X83510380Y-80668857D01*
X83510380Y-80573619D01*
X83462761Y-80430761D01*
X83367523Y-80335523D01*
X83272285Y-80287904D01*
X83081809Y-80240285D01*
X82938952Y-80240285D01*
X82748476Y-80287904D01*
X82653238Y-80335523D01*
X82558000Y-80430761D01*
X82510380Y-80573619D01*
X82510380Y-80668857D01*
X82558000Y-80811714D01*
X82605619Y-80859333D01*
X82843714Y-81716476D02*
X83510380Y-81716476D01*
X82462761Y-81478380D02*
X83177047Y-81240285D01*
X83177047Y-81859333D01*
%TO.C,C5*%
X83224666Y-70461142D02*
X83272285Y-70508761D01*
X83415142Y-70556380D01*
X83510380Y-70556380D01*
X83653238Y-70508761D01*
X83748476Y-70413523D01*
X83796095Y-70318285D01*
X83843714Y-70127809D01*
X83843714Y-69984952D01*
X83796095Y-69794476D01*
X83748476Y-69699238D01*
X83653238Y-69604000D01*
X83510380Y-69556380D01*
X83415142Y-69556380D01*
X83272285Y-69604000D01*
X83224666Y-69651619D01*
X82319904Y-69556380D02*
X82796095Y-69556380D01*
X82843714Y-70032571D01*
X82796095Y-69984952D01*
X82700857Y-69937333D01*
X82462761Y-69937333D01*
X82367523Y-69984952D01*
X82319904Y-70032571D01*
X82272285Y-70127809D01*
X82272285Y-70365904D01*
X82319904Y-70461142D01*
X82367523Y-70508761D01*
X82462761Y-70556380D01*
X82700857Y-70556380D01*
X82796095Y-70508761D01*
X82843714Y-70461142D01*
%TO.C,J1*%
X44997619Y-72723333D02*
X44283333Y-72723333D01*
X44140476Y-72770952D01*
X44045238Y-72866190D01*
X43997619Y-73009047D01*
X43997619Y-73104285D01*
X43997619Y-71723333D02*
X43997619Y-72294761D01*
X43997619Y-72009047D02*
X44997619Y-72009047D01*
X44854761Y-72104285D01*
X44759523Y-72199523D01*
X44711904Y-72294761D01*
%TO.C,J4*%
X82182380Y-75306666D02*
X82896666Y-75306666D01*
X83039523Y-75259047D01*
X83134761Y-75163809D01*
X83182380Y-75020952D01*
X83182380Y-74925714D01*
X82515714Y-76211428D02*
X83182380Y-76211428D01*
X82134761Y-75973333D02*
X82849047Y-75735238D01*
X82849047Y-76354285D01*
%TD*%
M02*
