%TF.GenerationSoftware,KiCad,Pcbnew,(5.1.7)-1*%
%TF.CreationDate,2021-05-02T00:17:45+08:00*%
%TF.ProjectId,t12_pps_power,7431325f-7070-4735-9f70-6f7765722e6b,rev?*%
%TF.SameCoordinates,Original*%
%TF.FileFunction,Legend,Top*%
%TF.FilePolarity,Positive*%
%FSLAX46Y46*%
G04 Gerber Fmt 4.6, Leading zero omitted, Abs format (unit mm)*
G04 Created by KiCad (PCBNEW (5.1.7)-1) date 2021-05-02 00:17:45*
%MOMM*%
%LPD*%
G01*
G04 APERTURE LIST*
%ADD10C,0.120000*%
%ADD11C,0.150000*%
G04 APERTURE END LIST*
D10*
%TO.C,C1*%
X60728748Y-70585000D02*
X61251252Y-70585000D01*
X60728748Y-69115000D02*
X61251252Y-69115000D01*
%TO.C,D1*%
X74520000Y-68960000D02*
X69120000Y-68960000D01*
X74520000Y-65660000D02*
X69120000Y-65660000D01*
X74520000Y-68960000D02*
X74520000Y-65660000D01*
%TO.C,J2*%
X41935000Y-78180000D02*
X41935000Y-69020000D01*
X41935000Y-69020000D02*
X43640000Y-69020000D01*
X43640000Y-78180000D02*
X41935000Y-78180000D01*
X45650000Y-78180000D02*
X47570000Y-78180000D01*
X47570000Y-69020000D02*
X45650000Y-69020000D01*
%TO.C,R1*%
X73887064Y-70585000D02*
X73432936Y-70585000D01*
X73887064Y-69115000D02*
X73432936Y-69115000D01*
%TO.C,R2*%
X77951064Y-69115000D02*
X77496936Y-69115000D01*
X77951064Y-70585000D02*
X77496936Y-70585000D01*
%TO.C,R3*%
X61227064Y-66915000D02*
X60772936Y-66915000D01*
X61227064Y-68385000D02*
X60772936Y-68385000D01*
%TO.C,U1*%
X76864000Y-72966000D02*
X77964000Y-72966000D01*
X76864000Y-72016000D02*
X76864000Y-72966000D01*
X75364000Y-72016000D02*
X76864000Y-72016000D01*
X76864000Y-81466000D02*
X81989000Y-81466000D01*
X76864000Y-82416000D02*
X76864000Y-81466000D01*
X75364000Y-82416000D02*
X76864000Y-82416000D01*
D11*
%TO.C,U2*%
X63030000Y-71090000D02*
X58890000Y-71090000D01*
X63960000Y-76230000D02*
X58890000Y-76230000D01*
%TO.C,C1*%
X60823333Y-68527142D02*
X60775714Y-68574761D01*
X60632857Y-68622380D01*
X60537619Y-68622380D01*
X60394761Y-68574761D01*
X60299523Y-68479523D01*
X60251904Y-68384285D01*
X60204285Y-68193809D01*
X60204285Y-68050952D01*
X60251904Y-67860476D01*
X60299523Y-67765238D01*
X60394761Y-67670000D01*
X60537619Y-67622380D01*
X60632857Y-67622380D01*
X60775714Y-67670000D01*
X60823333Y-67717619D01*
X61775714Y-68622380D02*
X61204285Y-68622380D01*
X61490000Y-68622380D02*
X61490000Y-67622380D01*
X61394761Y-67765238D01*
X61299523Y-67860476D01*
X61204285Y-67908095D01*
%TO.C,D1*%
X74953904Y-66492380D02*
X74953904Y-65492380D01*
X75192000Y-65492380D01*
X75334857Y-65540000D01*
X75430095Y-65635238D01*
X75477714Y-65730476D01*
X75525333Y-65920952D01*
X75525333Y-66063809D01*
X75477714Y-66254285D01*
X75430095Y-66349523D01*
X75334857Y-66444761D01*
X75192000Y-66492380D01*
X74953904Y-66492380D01*
X76477714Y-66492380D02*
X75906285Y-66492380D01*
X76192000Y-66492380D02*
X76192000Y-65492380D01*
X76096761Y-65635238D01*
X76001523Y-65730476D01*
X75906285Y-65778095D01*
%TO.C,J2*%
X50887380Y-73933333D02*
X51601666Y-73933333D01*
X51744523Y-73980952D01*
X51839761Y-74076190D01*
X51887380Y-74219047D01*
X51887380Y-74314285D01*
X50982619Y-73504761D02*
X50935000Y-73457142D01*
X50887380Y-73361904D01*
X50887380Y-73123809D01*
X50935000Y-73028571D01*
X50982619Y-72980952D01*
X51077857Y-72933333D01*
X51173095Y-72933333D01*
X51315952Y-72980952D01*
X51887380Y-73552380D01*
X51887380Y-72933333D01*
%TO.C,R1*%
X70445333Y-70302380D02*
X70112000Y-69826190D01*
X69873904Y-70302380D02*
X69873904Y-69302380D01*
X70254857Y-69302380D01*
X70350095Y-69350000D01*
X70397714Y-69397619D01*
X70445333Y-69492857D01*
X70445333Y-69635714D01*
X70397714Y-69730952D01*
X70350095Y-69778571D01*
X70254857Y-69826190D01*
X69873904Y-69826190D01*
X71397714Y-70302380D02*
X70826285Y-70302380D01*
X71112000Y-70302380D02*
X71112000Y-69302380D01*
X71016761Y-69445238D01*
X70921523Y-69540476D01*
X70826285Y-69588095D01*
%TO.C,R2*%
X82891333Y-70556380D02*
X82558000Y-70080190D01*
X82319904Y-70556380D02*
X82319904Y-69556380D01*
X82700857Y-69556380D01*
X82796095Y-69604000D01*
X82843714Y-69651619D01*
X82891333Y-69746857D01*
X82891333Y-69889714D01*
X82843714Y-69984952D01*
X82796095Y-70032571D01*
X82700857Y-70080190D01*
X82319904Y-70080190D01*
X83272285Y-69651619D02*
X83319904Y-69604000D01*
X83415142Y-69556380D01*
X83653238Y-69556380D01*
X83748476Y-69604000D01*
X83796095Y-69651619D01*
X83843714Y-69746857D01*
X83843714Y-69842095D01*
X83796095Y-69984952D01*
X83224666Y-70556380D01*
X83843714Y-70556380D01*
%TO.C,R3*%
X60833333Y-69752380D02*
X60500000Y-69276190D01*
X60261904Y-69752380D02*
X60261904Y-68752380D01*
X60642857Y-68752380D01*
X60738095Y-68800000D01*
X60785714Y-68847619D01*
X60833333Y-68942857D01*
X60833333Y-69085714D01*
X60785714Y-69180952D01*
X60738095Y-69228571D01*
X60642857Y-69276190D01*
X60261904Y-69276190D01*
X61166666Y-68752380D02*
X61785714Y-68752380D01*
X61452380Y-69133333D01*
X61595238Y-69133333D01*
X61690476Y-69180952D01*
X61738095Y-69228571D01*
X61785714Y-69323809D01*
X61785714Y-69561904D01*
X61738095Y-69657142D01*
X61690476Y-69704761D01*
X61595238Y-69752380D01*
X61309523Y-69752380D01*
X61214285Y-69704761D01*
X61166666Y-69657142D01*
%TO.C,U1*%
X78232095Y-82002380D02*
X78232095Y-82811904D01*
X78279714Y-82907142D01*
X78327333Y-82954761D01*
X78422571Y-83002380D01*
X78613047Y-83002380D01*
X78708285Y-82954761D01*
X78755904Y-82907142D01*
X78803523Y-82811904D01*
X78803523Y-82002380D01*
X79803523Y-83002380D02*
X79232095Y-83002380D01*
X79517809Y-83002380D02*
X79517809Y-82002380D01*
X79422571Y-82145238D01*
X79327333Y-82240476D01*
X79232095Y-82288095D01*
%TO.C,U2*%
X60198095Y-76612380D02*
X60198095Y-77421904D01*
X60245714Y-77517142D01*
X60293333Y-77564761D01*
X60388571Y-77612380D01*
X60579047Y-77612380D01*
X60674285Y-77564761D01*
X60721904Y-77517142D01*
X60769523Y-77421904D01*
X60769523Y-76612380D01*
X61198095Y-76707619D02*
X61245714Y-76660000D01*
X61340952Y-76612380D01*
X61579047Y-76612380D01*
X61674285Y-76660000D01*
X61721904Y-76707619D01*
X61769523Y-76802857D01*
X61769523Y-76898095D01*
X61721904Y-77040952D01*
X61150476Y-77612380D01*
X61769523Y-77612380D01*
%TD*%
M02*
