%TF.GenerationSoftware,KiCad,Pcbnew,(5.1.7)-1*%
%TF.CreationDate,2021-05-02T00:17:45+08:00*%
%TF.ProjectId,t12_pps_power,7431325f-7070-4735-9f70-6f7765722e6b,rev?*%
%TF.SameCoordinates,Original*%
%TF.FileFunction,Copper,L1,Top*%
%TF.FilePolarity,Positive*%
%FSLAX46Y46*%
G04 Gerber Fmt 4.6, Leading zero omitted, Abs format (unit mm)*
G04 Created by KiCad (PCBNEW (5.1.7)-1) date 2021-05-02 00:17:45*
%MOMM*%
%LPD*%
G01*
G04 APERTURE LIST*
%TA.AperFunction,SMDPad,CuDef*%
%ADD10R,2.500000X1.800000*%
%TD*%
%TA.AperFunction,ComponentPad*%
%ADD11O,2.500000X1.500000*%
%TD*%
%TA.AperFunction,ComponentPad*%
%ADD12O,1.750000X2.750000*%
%TD*%
%TA.AperFunction,ComponentPad*%
%ADD13C,1.500000*%
%TD*%
%TA.AperFunction,ComponentPad*%
%ADD14O,2.100000X1.000000*%
%TD*%
%TA.AperFunction,ComponentPad*%
%ADD15O,1.600000X1.000000*%
%TD*%
%TA.AperFunction,SMDPad,CuDef*%
%ADD16R,1.150000X0.300000*%
%TD*%
%TA.AperFunction,SMDPad,CuDef*%
%ADD17R,4.600000X1.100000*%
%TD*%
%TA.AperFunction,SMDPad,CuDef*%
%ADD18R,9.400000X10.800000*%
%TD*%
%TA.AperFunction,SMDPad,CuDef*%
%ADD19R,1.100000X0.510000*%
%TD*%
%TA.AperFunction,ComponentPad*%
%ADD20C,2.700000*%
%TD*%
%TA.AperFunction,ViaPad*%
%ADD21C,1.000000*%
%TD*%
%TA.AperFunction,ViaPad*%
%ADD22C,0.500000*%
%TD*%
%TA.AperFunction,Conductor*%
%ADD23C,0.130000*%
%TD*%
%TA.AperFunction,Conductor*%
%ADD24C,1.040000*%
%TD*%
%TA.AperFunction,Conductor*%
%ADD25C,0.250000*%
%TD*%
%TA.AperFunction,Conductor*%
%ADD26C,0.260000*%
%TD*%
%TA.AperFunction,Conductor*%
%ADD27C,0.254000*%
%TD*%
%TA.AperFunction,Conductor*%
%ADD28C,0.100000*%
%TD*%
G04 APERTURE END LIST*
%TO.P,C1,1*%
%TO.N,Net-(C1-Pad1)*%
%TA.AperFunction,SMDPad,CuDef*%
G36*
G01*
X59365000Y-70325000D02*
X59365000Y-69375000D01*
G75*
G02*
X59615000Y-69125000I250000J0D01*
G01*
X60290000Y-69125000D01*
G75*
G02*
X60540000Y-69375000I0J-250000D01*
G01*
X60540000Y-70325000D01*
G75*
G02*
X60290000Y-70575000I-250000J0D01*
G01*
X59615000Y-70575000D01*
G75*
G02*
X59365000Y-70325000I0J250000D01*
G01*
G37*
%TD.AperFunction*%
%TO.P,C1,2*%
%TO.N,GND*%
%TA.AperFunction,SMDPad,CuDef*%
G36*
G01*
X61440000Y-70325000D02*
X61440000Y-69375000D01*
G75*
G02*
X61690000Y-69125000I250000J0D01*
G01*
X62365000Y-69125000D01*
G75*
G02*
X62615000Y-69375000I0J-250000D01*
G01*
X62615000Y-70325000D01*
G75*
G02*
X62365000Y-70575000I-250000J0D01*
G01*
X61690000Y-70575000D01*
G75*
G02*
X61440000Y-70325000I0J250000D01*
G01*
G37*
%TD.AperFunction*%
%TD*%
D10*
%TO.P,D1,1*%
%TO.N,+24V*%
X73120000Y-67310000D03*
%TO.P,D1,2*%
%TO.N,Net-(D1-Pad2)*%
X69120000Y-67310000D03*
%TD*%
D11*
%TO.P,J1,5*%
%TO.N,GND*%
X52190000Y-80250000D03*
X45640000Y-80250000D03*
X45640000Y-67350000D03*
X52190000Y-67350000D03*
D12*
%TO.P,J1,4*%
X53090000Y-69600000D03*
%TO.P,J1,1*%
%TO.N,VCC*%
X53090000Y-78050000D03*
D13*
%TO.P,J1,6*%
%TO.N,N/C*%
X53060000Y-73850000D03*
%TO.P,J1,3*%
%TO.N,/DP*%
X53090000Y-71920000D03*
%TO.P,J1,2*%
%TO.N,/DM*%
X53090000Y-75780000D03*
%TD*%
D14*
%TO.P,J2,S1*%
%TO.N,GND*%
X48825000Y-69280000D03*
X48825000Y-77920000D03*
D15*
X44645000Y-69280000D03*
X44645000Y-77920000D03*
D16*
%TO.P,J2,B1*%
X49390000Y-76650000D03*
%TO.P,J2,B4*%
%TO.N,VCC*%
X49390000Y-75850000D03*
%TO.P,J2,B5*%
%TO.N,/CC2*%
X49390000Y-75350000D03*
%TO.P,J2,A8*%
%TO.N,Net-(J2-PadA8)*%
X49390000Y-74850000D03*
%TO.P,J2,B6*%
%TO.N,/DP*%
X49390000Y-74350000D03*
%TO.P,J2,A7*%
%TO.N,/DM*%
X49390000Y-73850000D03*
%TO.P,J2,A6*%
%TO.N,/DP*%
X49390000Y-73350000D03*
%TO.P,J2,B7*%
%TO.N,/DM*%
X49390000Y-72850000D03*
%TO.P,J2,A5*%
%TO.N,/CC1*%
X49390000Y-72350000D03*
%TO.P,J2,B8*%
%TO.N,Net-(J2-PadB8)*%
X49390000Y-71850000D03*
%TO.P,J2,A4*%
%TO.N,VCC*%
X49390000Y-71050000D03*
%TO.P,J2,A1*%
%TO.N,GND*%
X49390000Y-70250000D03*
%TO.P,J2,B12*%
X49390000Y-70550000D03*
%TO.P,J2,B9*%
%TO.N,VCC*%
X49390000Y-71350000D03*
%TO.P,J2,A9*%
X49390000Y-76150000D03*
%TO.P,J2,A12*%
%TO.N,GND*%
X49390000Y-76950000D03*
%TD*%
%TO.P,R1,2*%
%TO.N,+24V*%
%TA.AperFunction,SMDPad,CuDef*%
G36*
G01*
X73260000Y-69399999D02*
X73260000Y-70300001D01*
G75*
G02*
X73010001Y-70550000I-249999J0D01*
G01*
X72309999Y-70550000D01*
G75*
G02*
X72060000Y-70300001I0J249999D01*
G01*
X72060000Y-69399999D01*
G75*
G02*
X72309999Y-69150000I249999J0D01*
G01*
X73010001Y-69150000D01*
G75*
G02*
X73260000Y-69399999I0J-249999D01*
G01*
G37*
%TD.AperFunction*%
%TO.P,R1,1*%
%TO.N,Net-(R1-Pad1)*%
%TA.AperFunction,SMDPad,CuDef*%
G36*
G01*
X75260000Y-69399999D02*
X75260000Y-70300001D01*
G75*
G02*
X75010001Y-70550000I-249999J0D01*
G01*
X74309999Y-70550000D01*
G75*
G02*
X74060000Y-70300001I0J249999D01*
G01*
X74060000Y-69399999D01*
G75*
G02*
X74309999Y-69150000I249999J0D01*
G01*
X75010001Y-69150000D01*
G75*
G02*
X75260000Y-69399999I0J-249999D01*
G01*
G37*
%TD.AperFunction*%
%TD*%
%TO.P,R2,1*%
%TO.N,GND*%
%TA.AperFunction,SMDPad,CuDef*%
G36*
G01*
X79324000Y-69399999D02*
X79324000Y-70300001D01*
G75*
G02*
X79074001Y-70550000I-249999J0D01*
G01*
X78373999Y-70550000D01*
G75*
G02*
X78124000Y-70300001I0J249999D01*
G01*
X78124000Y-69399999D01*
G75*
G02*
X78373999Y-69150000I249999J0D01*
G01*
X79074001Y-69150000D01*
G75*
G02*
X79324000Y-69399999I0J-249999D01*
G01*
G37*
%TD.AperFunction*%
%TO.P,R2,2*%
%TO.N,Net-(R1-Pad1)*%
%TA.AperFunction,SMDPad,CuDef*%
G36*
G01*
X77324000Y-69399999D02*
X77324000Y-70300001D01*
G75*
G02*
X77074001Y-70550000I-249999J0D01*
G01*
X76373999Y-70550000D01*
G75*
G02*
X76124000Y-70300001I0J249999D01*
G01*
X76124000Y-69399999D01*
G75*
G02*
X76373999Y-69150000I249999J0D01*
G01*
X77074001Y-69150000D01*
G75*
G02*
X77324000Y-69399999I0J-249999D01*
G01*
G37*
%TD.AperFunction*%
%TD*%
%TO.P,R3,1*%
%TO.N,GND*%
%TA.AperFunction,SMDPad,CuDef*%
G36*
G01*
X62600000Y-67199999D02*
X62600000Y-68100001D01*
G75*
G02*
X62350001Y-68350000I-249999J0D01*
G01*
X61649999Y-68350000D01*
G75*
G02*
X61400000Y-68100001I0J249999D01*
G01*
X61400000Y-67199999D01*
G75*
G02*
X61649999Y-66950000I249999J0D01*
G01*
X62350001Y-66950000D01*
G75*
G02*
X62600000Y-67199999I0J-249999D01*
G01*
G37*
%TD.AperFunction*%
%TO.P,R3,2*%
%TO.N,Net-(R3-Pad2)*%
%TA.AperFunction,SMDPad,CuDef*%
G36*
G01*
X60600000Y-67199999D02*
X60600000Y-68100001D01*
G75*
G02*
X60350001Y-68350000I-249999J0D01*
G01*
X59649999Y-68350000D01*
G75*
G02*
X59400000Y-68100001I0J249999D01*
G01*
X59400000Y-67199999D01*
G75*
G02*
X59649999Y-66950000I249999J0D01*
G01*
X60350001Y-66950000D01*
G75*
G02*
X60600000Y-67199999I0J-249999D01*
G01*
G37*
%TD.AperFunction*%
%TD*%
D17*
%TO.P,U1,1*%
%TO.N,GND*%
X79689000Y-80616000D03*
%TO.P,U1,2*%
%TO.N,Net-(U1-Pad2)*%
X79689000Y-78916000D03*
%TO.P,U1,3*%
%TO.N,Net-(D1-Pad2)*%
X79689000Y-77216000D03*
%TO.P,U1,4*%
%TO.N,VCC*%
X79689000Y-75516000D03*
%TO.P,U1,5*%
%TO.N,Net-(R1-Pad1)*%
X79689000Y-73816000D03*
D18*
%TO.P,U1,3*%
%TO.N,Net-(D1-Pad2)*%
X70539000Y-77216000D03*
%TD*%
D19*
%TO.P,U2,1*%
%TO.N,/CC1*%
X63510000Y-75660000D03*
%TO.P,U2,2*%
%TO.N,VCC*%
X63510000Y-74660000D03*
%TO.P,U2,3*%
%TO.N,Net-(C1-Pad1)*%
X63510000Y-73660000D03*
%TO.P,U2,4*%
%TO.N,GND*%
X63510000Y-72660000D03*
%TO.P,U2,6*%
%TO.N,Net-(C1-Pad1)*%
X58410000Y-71660000D03*
%TO.P,U2,7*%
%TO.N,Net-(R3-Pad2)*%
X58410000Y-72660000D03*
%TO.P,U2,8*%
%TO.N,/DP*%
X58410000Y-73660000D03*
%TO.P,U2,5*%
%TO.N,Net-(C1-Pad1)*%
X63510000Y-71660000D03*
%TO.P,U2,9*%
%TO.N,/DM*%
X58410000Y-74660000D03*
%TO.P,U2,10*%
%TO.N,/CC2*%
X58410000Y-75660000D03*
%TD*%
%TO.P,J4,1*%
%TO.N,+24V*%
%TA.AperFunction,ComponentPad*%
G36*
G01*
X86530001Y-72310000D02*
X88729999Y-72310000D01*
G75*
G02*
X88980000Y-72560001I0J-250001D01*
G01*
X88980000Y-74759999D01*
G75*
G02*
X88729999Y-75010000I-250001J0D01*
G01*
X86530001Y-75010000D01*
G75*
G02*
X86280000Y-74759999I0J250001D01*
G01*
X86280000Y-72560001D01*
G75*
G02*
X86530001Y-72310000I250001J0D01*
G01*
G37*
%TD.AperFunction*%
D20*
%TO.P,J4,2*%
%TO.N,GND*%
X87630000Y-77620000D03*
%TD*%
D21*
%TO.N,*%
X89408000Y-81788000D03*
D22*
%TO.N,VCC*%
X60960000Y-75184000D03*
D21*
X83898000Y-75516000D03*
%TO.N,Net-(D1-Pad2)*%
X68580000Y-74422000D03*
X68580000Y-73406000D03*
X68580000Y-72390000D03*
X66294000Y-66802000D03*
D22*
%TO.N,/DM*%
X48200000Y-73850000D03*
X48200008Y-72644000D03*
%TO.N,/CC2*%
X58420010Y-76708000D03*
X47751994Y-74930000D03*
%TO.N,/CC1*%
X51308000Y-70866000D03*
X50800000Y-78740000D03*
D21*
%TO.N,GND*%
X89916000Y-65786000D03*
X89916000Y-67564000D03*
X89916000Y-69342000D03*
X88392000Y-67564000D03*
X88392000Y-69342000D03*
X88392000Y-65786000D03*
X84582000Y-65786000D03*
X86360000Y-65786000D03*
X82804000Y-65786000D03*
X79248000Y-65786000D03*
X81026000Y-65786000D03*
X77470000Y-65786000D03*
X44704000Y-65786000D03*
X46482000Y-65786000D03*
X42926000Y-65786000D03*
X50546000Y-65786000D03*
X52324000Y-65786000D03*
X48768000Y-65786000D03*
X63754000Y-69850000D03*
D22*
X61976000Y-71120000D03*
X60198000Y-71374000D03*
%TD*%
D23*
%TO.N,Net-(C1-Pad1)*%
X58410000Y-71392500D02*
X59952500Y-69850000D01*
X58410000Y-71660000D02*
X58410000Y-71392500D01*
X63510000Y-71660000D02*
X61762500Y-71660000D01*
X62830000Y-73660000D02*
X61722000Y-72552000D01*
X63510000Y-73660000D02*
X62830000Y-73660000D01*
X61722000Y-71619500D02*
X61599250Y-71496750D01*
X61722000Y-72552000D02*
X61722000Y-71619500D01*
X61599250Y-71496750D02*
X59952500Y-69850000D01*
X61762500Y-71660000D02*
X61599250Y-71496750D01*
D24*
%TO.N,+24V*%
X87630000Y-73660000D02*
X87630000Y-70358000D01*
X84582000Y-67310000D02*
X73120000Y-67310000D01*
X87630000Y-70358000D02*
X84582000Y-67310000D01*
X72660000Y-67770000D02*
X73120000Y-67310000D01*
X72660000Y-69850000D02*
X72660000Y-67770000D01*
D25*
%TO.N,VCC*%
X49390000Y-75850000D02*
X51550000Y-75850000D01*
X49390000Y-76150000D02*
X51500000Y-76150000D01*
X51500000Y-75900000D02*
X51550000Y-75850000D01*
X51500000Y-76150000D02*
X51500000Y-75900000D01*
D23*
X61484000Y-74660000D02*
X60960000Y-75184000D01*
X63510000Y-74660000D02*
X61484000Y-74660000D01*
D24*
X79689000Y-75516000D02*
X83898000Y-75516000D01*
X83898000Y-75516000D02*
X83898000Y-75516000D01*
D26*
X48555000Y-71350000D02*
X48531000Y-71374000D01*
X49390000Y-71350000D02*
X48555000Y-71350000D01*
X48531000Y-71374000D02*
X46482000Y-71374000D01*
X49374999Y-75834999D02*
X47609001Y-75834999D01*
X49390000Y-75850000D02*
X49374999Y-75834999D01*
X46482000Y-71374000D02*
X46482000Y-75946000D01*
X47498000Y-75946000D02*
X47609001Y-75834999D01*
X46482000Y-75946000D02*
X47498000Y-75946000D01*
X49390000Y-71050000D02*
X49390000Y-71350000D01*
D24*
%TO.N,Net-(D1-Pad2)*%
X68612000Y-66802000D02*
X69120000Y-67310000D01*
X66294000Y-66802000D02*
X68612000Y-66802000D01*
X79689000Y-77216000D02*
X70539000Y-77216000D01*
D25*
%TO.N,/DP*%
X49390000Y-73350000D02*
X50150000Y-73350000D01*
X51580000Y-71920000D02*
X53090000Y-71920000D01*
X50150000Y-73350000D02*
X51580000Y-71920000D01*
D23*
X53090000Y-71920000D02*
X54420000Y-71920000D01*
X56160000Y-73660000D02*
X58410000Y-73660000D01*
X54420000Y-71920000D02*
X56160000Y-73660000D01*
X48685000Y-73350000D02*
X49390000Y-73350000D01*
X48575000Y-73240000D02*
X48685000Y-73350000D01*
X47630000Y-73240000D02*
X48575000Y-73240000D01*
X47498000Y-73372000D02*
X47630000Y-73240000D01*
X47498000Y-73914000D02*
X47498000Y-73372000D01*
X48006000Y-74422000D02*
X47498000Y-73914000D01*
X48613000Y-74422000D02*
X48006000Y-74422000D01*
X48685000Y-74350000D02*
X48613000Y-74422000D01*
X49390000Y-74350000D02*
X48685000Y-74350000D01*
D25*
%TO.N,/DM*%
X49390000Y-73850000D02*
X51000000Y-73850000D01*
X52930000Y-75780000D02*
X53090000Y-75780000D01*
X51000000Y-73850000D02*
X52930000Y-75780000D01*
D23*
X48200000Y-73850000D02*
X49390000Y-73850000D01*
X58410000Y-74660000D02*
X56290000Y-74660000D01*
X55170000Y-75780000D02*
X53090000Y-75780000D01*
X56290000Y-74660000D02*
X55170000Y-75780000D01*
X48406008Y-72850000D02*
X48200008Y-72644000D01*
X49390000Y-72850000D02*
X48406008Y-72850000D01*
%TO.N,/CC2*%
X58410000Y-75660000D02*
X58410000Y-76697990D01*
X58410000Y-76697990D02*
X58420010Y-76708000D01*
X48260000Y-74930000D02*
X47751994Y-74930000D01*
X48680000Y-75350000D02*
X48260000Y-74930000D01*
X49390000Y-75350000D02*
X48680000Y-75350000D01*
%TO.N,/CC1*%
X51308000Y-70866000D02*
X50800000Y-70866000D01*
X50800000Y-70866000D02*
X50546000Y-71120000D01*
X50095000Y-72350000D02*
X49390000Y-72350000D01*
X50546000Y-71899000D02*
X50095000Y-72350000D01*
X50546000Y-71120000D02*
X50546000Y-71899000D01*
X56620000Y-82550000D02*
X51562000Y-82550000D01*
X50550001Y-78989999D02*
X50800000Y-78740000D01*
X51562000Y-82550000D02*
X50550001Y-81538001D01*
X63510000Y-75660000D02*
X56620000Y-82550000D01*
X50550001Y-81538001D02*
X50550001Y-78989999D01*
D24*
%TO.N,Net-(R1-Pad1)*%
X76724000Y-69850000D02*
X74660000Y-69850000D01*
X76724000Y-70851000D02*
X76724000Y-69850000D01*
X79689000Y-73816000D02*
X76724000Y-70851000D01*
D23*
%TO.N,Net-(R3-Pad2)*%
X57730000Y-72660000D02*
X57404000Y-72334000D01*
X58410000Y-72660000D02*
X57730000Y-72660000D01*
X57404000Y-70246000D02*
X60000000Y-67650000D01*
X57404000Y-72334000D02*
X57404000Y-70246000D01*
%TO.N,GND*%
X49390000Y-70550000D02*
X49390000Y-70250000D01*
X49390000Y-69845000D02*
X48825000Y-69280000D01*
X49390000Y-70250000D02*
X49390000Y-69845000D01*
X62027500Y-67677500D02*
X62000000Y-67650000D01*
X62027500Y-69850000D02*
X62027500Y-67677500D01*
D26*
X49390000Y-76950000D02*
X49390000Y-77355000D01*
X49390000Y-77355000D02*
X48825000Y-77920000D01*
X49390000Y-76650000D02*
X49390000Y-77355000D01*
%TD*%
D27*
%TO.N,VCC*%
X51705000Y-75916411D02*
X51723000Y-76006902D01*
X51723000Y-76700000D01*
X51725440Y-76724776D01*
X51732667Y-76748601D01*
X51744403Y-76770557D01*
X51760197Y-76789803D01*
X51779443Y-76805597D01*
X51801399Y-76817333D01*
X51825224Y-76824560D01*
X51850000Y-76827000D01*
X52178315Y-76827000D01*
X52207114Y-76855799D01*
X52433957Y-77007371D01*
X52686011Y-77111775D01*
X52953589Y-77165000D01*
X53226411Y-77165000D01*
X53493989Y-77111775D01*
X53746043Y-77007371D01*
X53972886Y-76855799D01*
X54001685Y-76827000D01*
X54123000Y-76827000D01*
X54123000Y-79223000D01*
X53621784Y-79223000D01*
X53463188Y-79092843D01*
X53222581Y-78964236D01*
X52961507Y-78885040D01*
X52758037Y-78865000D01*
X51677474Y-78865000D01*
X51685000Y-78827165D01*
X51685000Y-78652835D01*
X51650990Y-78481855D01*
X51584277Y-78320795D01*
X51487424Y-78175845D01*
X51364155Y-78052576D01*
X51219205Y-77955723D01*
X51058145Y-77889010D01*
X50887165Y-77855000D01*
X50712835Y-77855000D01*
X50541855Y-77889010D01*
X50527000Y-77895163D01*
X50527000Y-77395632D01*
X50554502Y-77344180D01*
X50590812Y-77224482D01*
X50603072Y-77100000D01*
X50603072Y-76500000D01*
X50590812Y-76375518D01*
X50554502Y-76255820D01*
X50495537Y-76145506D01*
X50416185Y-76048815D01*
X50356704Y-76000000D01*
X50416185Y-75951185D01*
X50495537Y-75854494D01*
X50510233Y-75827000D01*
X51705000Y-75827000D01*
X51705000Y-75916411D01*
%TA.AperFunction,Conductor*%
D28*
G36*
X51705000Y-75916411D02*
G01*
X51723000Y-76006902D01*
X51723000Y-76700000D01*
X51725440Y-76724776D01*
X51732667Y-76748601D01*
X51744403Y-76770557D01*
X51760197Y-76789803D01*
X51779443Y-76805597D01*
X51801399Y-76817333D01*
X51825224Y-76824560D01*
X51850000Y-76827000D01*
X52178315Y-76827000D01*
X52207114Y-76855799D01*
X52433957Y-77007371D01*
X52686011Y-77111775D01*
X52953589Y-77165000D01*
X53226411Y-77165000D01*
X53493989Y-77111775D01*
X53746043Y-77007371D01*
X53972886Y-76855799D01*
X54001685Y-76827000D01*
X54123000Y-76827000D01*
X54123000Y-79223000D01*
X53621784Y-79223000D01*
X53463188Y-79092843D01*
X53222581Y-78964236D01*
X52961507Y-78885040D01*
X52758037Y-78865000D01*
X51677474Y-78865000D01*
X51685000Y-78827165D01*
X51685000Y-78652835D01*
X51650990Y-78481855D01*
X51584277Y-78320795D01*
X51487424Y-78175845D01*
X51364155Y-78052576D01*
X51219205Y-77955723D01*
X51058145Y-77889010D01*
X50887165Y-77855000D01*
X50712835Y-77855000D01*
X50541855Y-77889010D01*
X50527000Y-77895163D01*
X50527000Y-77395632D01*
X50554502Y-77344180D01*
X50590812Y-77224482D01*
X50603072Y-77100000D01*
X50603072Y-76500000D01*
X50590812Y-76375518D01*
X50554502Y-76255820D01*
X50495537Y-76145506D01*
X50416185Y-76048815D01*
X50356704Y-76000000D01*
X50416185Y-75951185D01*
X50495537Y-75854494D01*
X50510233Y-75827000D01*
X51705000Y-75827000D01*
X51705000Y-75916411D01*
G37*
%TD.AperFunction*%
D27*
X47474259Y-71164731D02*
X47579319Y-71321964D01*
X47713036Y-71455681D01*
X47780861Y-71501000D01*
X47244000Y-71501000D01*
X47219224Y-71503440D01*
X47195399Y-71510667D01*
X47173443Y-71522403D01*
X47154197Y-71538197D01*
X47138403Y-71557443D01*
X47126667Y-71579399D01*
X47119440Y-71603224D01*
X47117000Y-71628000D01*
X47117000Y-72761675D01*
X47110704Y-72769347D01*
X47027342Y-72852709D01*
X47000631Y-72874630D01*
X46978708Y-72901343D01*
X46958699Y-72925724D01*
X46913155Y-72981219D01*
X46848155Y-73102825D01*
X46808128Y-73234776D01*
X46798000Y-73337610D01*
X46794613Y-73372000D01*
X46798000Y-73406387D01*
X46798000Y-73879613D01*
X46794613Y-73914000D01*
X46798000Y-73948387D01*
X46798000Y-73948389D01*
X46808128Y-74051223D01*
X46843996Y-74169463D01*
X46848155Y-74183174D01*
X46913155Y-74304781D01*
X46978708Y-74384657D01*
X47000630Y-74411369D01*
X47022280Y-74429137D01*
X46967717Y-74510795D01*
X46901004Y-74671855D01*
X46866994Y-74842835D01*
X46866994Y-75017165D01*
X46901004Y-75188145D01*
X46967717Y-75349205D01*
X47064570Y-75494155D01*
X47117000Y-75546585D01*
X47117000Y-75692000D01*
X47119440Y-75716776D01*
X47126667Y-75740601D01*
X47138403Y-75762557D01*
X47154197Y-75781803D01*
X47173443Y-75797597D01*
X47195399Y-75809333D01*
X47219224Y-75816560D01*
X47244000Y-75819000D01*
X47638355Y-75819000D01*
X47579319Y-75878036D01*
X47474259Y-76035269D01*
X47458630Y-76073000D01*
X45593000Y-76073000D01*
X45593000Y-70993000D01*
X47403126Y-70993000D01*
X47474259Y-71164731D01*
%TA.AperFunction,Conductor*%
D28*
G36*
X47474259Y-71164731D02*
G01*
X47579319Y-71321964D01*
X47713036Y-71455681D01*
X47780861Y-71501000D01*
X47244000Y-71501000D01*
X47219224Y-71503440D01*
X47195399Y-71510667D01*
X47173443Y-71522403D01*
X47154197Y-71538197D01*
X47138403Y-71557443D01*
X47126667Y-71579399D01*
X47119440Y-71603224D01*
X47117000Y-71628000D01*
X47117000Y-72761675D01*
X47110704Y-72769347D01*
X47027342Y-72852709D01*
X47000631Y-72874630D01*
X46978708Y-72901343D01*
X46958699Y-72925724D01*
X46913155Y-72981219D01*
X46848155Y-73102825D01*
X46808128Y-73234776D01*
X46798000Y-73337610D01*
X46794613Y-73372000D01*
X46798000Y-73406387D01*
X46798000Y-73879613D01*
X46794613Y-73914000D01*
X46798000Y-73948387D01*
X46798000Y-73948389D01*
X46808128Y-74051223D01*
X46843996Y-74169463D01*
X46848155Y-74183174D01*
X46913155Y-74304781D01*
X46978708Y-74384657D01*
X47000630Y-74411369D01*
X47022280Y-74429137D01*
X46967717Y-74510795D01*
X46901004Y-74671855D01*
X46866994Y-74842835D01*
X46866994Y-75017165D01*
X46901004Y-75188145D01*
X46967717Y-75349205D01*
X47064570Y-75494155D01*
X47117000Y-75546585D01*
X47117000Y-75692000D01*
X47119440Y-75716776D01*
X47126667Y-75740601D01*
X47138403Y-75762557D01*
X47154197Y-75781803D01*
X47173443Y-75797597D01*
X47195399Y-75809333D01*
X47219224Y-75816560D01*
X47244000Y-75819000D01*
X47638355Y-75819000D01*
X47579319Y-75878036D01*
X47474259Y-76035269D01*
X47458630Y-76073000D01*
X45593000Y-76073000D01*
X45593000Y-70993000D01*
X47403126Y-70993000D01*
X47474259Y-71164731D01*
G37*
%TD.AperFunction*%
%TD*%
D27*
%TO.N,GND*%
X90390000Y-81214721D02*
X90289612Y-81064480D01*
X90131520Y-80906388D01*
X89945624Y-80782176D01*
X89739067Y-80696617D01*
X89519788Y-80653000D01*
X89296212Y-80653000D01*
X89076933Y-80696617D01*
X88870376Y-80782176D01*
X88684480Y-80906388D01*
X88526388Y-81064480D01*
X88402176Y-81250376D01*
X88316617Y-81456933D01*
X88273000Y-81676212D01*
X88273000Y-81899788D01*
X88316617Y-82119067D01*
X88402176Y-82325624D01*
X88526388Y-82511520D01*
X88684480Y-82669612D01*
X88870376Y-82793824D01*
X89076933Y-82879383D01*
X89296212Y-82923000D01*
X89519788Y-82923000D01*
X89739067Y-82879383D01*
X89945624Y-82793824D01*
X90131520Y-82669612D01*
X90289612Y-82511520D01*
X90390000Y-82361279D01*
X90390000Y-83140000D01*
X75601459Y-83140000D01*
X75690185Y-83067185D01*
X75769537Y-82970494D01*
X75828502Y-82860180D01*
X75864812Y-82740482D01*
X75877072Y-82616000D01*
X75877072Y-81166000D01*
X76750928Y-81166000D01*
X76763188Y-81290482D01*
X76799498Y-81410180D01*
X76858463Y-81520494D01*
X76937815Y-81617185D01*
X77034506Y-81696537D01*
X77144820Y-81755502D01*
X77264518Y-81791812D01*
X77389000Y-81804072D01*
X79403250Y-81801000D01*
X79562000Y-81642250D01*
X79562000Y-80743000D01*
X79816000Y-80743000D01*
X79816000Y-81642250D01*
X79974750Y-81801000D01*
X81989000Y-81804072D01*
X82113482Y-81791812D01*
X82233180Y-81755502D01*
X82343494Y-81696537D01*
X82440185Y-81617185D01*
X82519537Y-81520494D01*
X82578502Y-81410180D01*
X82614812Y-81290482D01*
X82627072Y-81166000D01*
X82624000Y-80901750D01*
X82465250Y-80743000D01*
X79816000Y-80743000D01*
X79562000Y-80743000D01*
X76912750Y-80743000D01*
X76754000Y-80901750D01*
X76750928Y-81166000D01*
X75877072Y-81166000D01*
X75877072Y-78371000D01*
X76750928Y-78371000D01*
X76750928Y-79466000D01*
X76763188Y-79590482D01*
X76799498Y-79710180D01*
X76829335Y-79766000D01*
X76799498Y-79821820D01*
X76763188Y-79941518D01*
X76750928Y-80066000D01*
X76754000Y-80330250D01*
X76912750Y-80489000D01*
X79562000Y-80489000D01*
X79562000Y-80469000D01*
X79816000Y-80469000D01*
X79816000Y-80489000D01*
X82465250Y-80489000D01*
X82624000Y-80330250D01*
X82627072Y-80066000D01*
X82614812Y-79941518D01*
X82578502Y-79821820D01*
X82548665Y-79766000D01*
X82578502Y-79710180D01*
X82614812Y-79590482D01*
X82627072Y-79466000D01*
X82627072Y-79004838D01*
X86424767Y-79004838D01*
X86562724Y-79305044D01*
X86911967Y-79480882D01*
X87288804Y-79585207D01*
X87678753Y-79614009D01*
X88066828Y-79566184D01*
X88438116Y-79443568D01*
X88697276Y-79305044D01*
X88835233Y-79004838D01*
X87630000Y-77799605D01*
X86424767Y-79004838D01*
X82627072Y-79004838D01*
X82627072Y-78366000D01*
X82614812Y-78241518D01*
X82578502Y-78121820D01*
X82548665Y-78066000D01*
X82578502Y-78010180D01*
X82614812Y-77890482D01*
X82627072Y-77766000D01*
X82627072Y-77668753D01*
X85635991Y-77668753D01*
X85683816Y-78056828D01*
X85806432Y-78428116D01*
X85944956Y-78687276D01*
X86245162Y-78825233D01*
X87450395Y-77620000D01*
X87809605Y-77620000D01*
X89014838Y-78825233D01*
X89315044Y-78687276D01*
X89490882Y-78338033D01*
X89595207Y-77961196D01*
X89624009Y-77571247D01*
X89576184Y-77183172D01*
X89453568Y-76811884D01*
X89315044Y-76552724D01*
X89014838Y-76414767D01*
X87809605Y-77620000D01*
X87450395Y-77620000D01*
X86245162Y-76414767D01*
X85944956Y-76552724D01*
X85769118Y-76901967D01*
X85664793Y-77278804D01*
X85635991Y-77668753D01*
X82627072Y-77668753D01*
X82627072Y-76671000D01*
X83954737Y-76671000D01*
X84124419Y-76654288D01*
X84342138Y-76588243D01*
X84542788Y-76480994D01*
X84718660Y-76336660D01*
X84862994Y-76160788D01*
X84970243Y-75960138D01*
X85036288Y-75742419D01*
X85058588Y-75516000D01*
X85036288Y-75289581D01*
X84970243Y-75071862D01*
X84862994Y-74871212D01*
X84718660Y-74695340D01*
X84542788Y-74551006D01*
X84342138Y-74443757D01*
X84124419Y-74377712D01*
X83954737Y-74361000D01*
X82627072Y-74361000D01*
X82627072Y-73266000D01*
X82614812Y-73141518D01*
X82578502Y-73021820D01*
X82519537Y-72911506D01*
X82440185Y-72814815D01*
X82343494Y-72735463D01*
X82233180Y-72676498D01*
X82113482Y-72640188D01*
X81989000Y-72627928D01*
X80134345Y-72627928D01*
X78564833Y-71058417D01*
X78597000Y-71026250D01*
X78597000Y-69977000D01*
X78851000Y-69977000D01*
X78851000Y-71026250D01*
X79009750Y-71185000D01*
X79324000Y-71188072D01*
X79448482Y-71175812D01*
X79568180Y-71139502D01*
X79678494Y-71080537D01*
X79775185Y-71001185D01*
X79854537Y-70904494D01*
X79913502Y-70794180D01*
X79949812Y-70674482D01*
X79962072Y-70550000D01*
X79959000Y-70135750D01*
X79800250Y-69977000D01*
X78851000Y-69977000D01*
X78597000Y-69977000D01*
X78577000Y-69977000D01*
X78577000Y-69723000D01*
X78597000Y-69723000D01*
X78597000Y-68673750D01*
X78851000Y-68673750D01*
X78851000Y-69723000D01*
X79800250Y-69723000D01*
X79959000Y-69564250D01*
X79962072Y-69150000D01*
X79949812Y-69025518D01*
X79913502Y-68905820D01*
X79854537Y-68795506D01*
X79775185Y-68698815D01*
X79678494Y-68619463D01*
X79568180Y-68560498D01*
X79448482Y-68524188D01*
X79324000Y-68511928D01*
X79009750Y-68515000D01*
X78851000Y-68673750D01*
X78597000Y-68673750D01*
X78438250Y-68515000D01*
X78124000Y-68511928D01*
X77999518Y-68524188D01*
X77879820Y-68560498D01*
X77769506Y-68619463D01*
X77672815Y-68698815D01*
X77648637Y-68728276D01*
X77567387Y-68661595D01*
X77413851Y-68579528D01*
X77247255Y-68528992D01*
X77074001Y-68511928D01*
X76373999Y-68511928D01*
X76200745Y-68528992D01*
X76034149Y-68579528D01*
X75880613Y-68661595D01*
X75839909Y-68695000D01*
X75544091Y-68695000D01*
X75503387Y-68661595D01*
X75349851Y-68579528D01*
X75183255Y-68528992D01*
X75010001Y-68511928D01*
X74928635Y-68511928D01*
X74953718Y-68465000D01*
X84103584Y-68465000D01*
X86475001Y-70836418D01*
X86475001Y-71677345D01*
X86356747Y-71688992D01*
X86190150Y-71739529D01*
X86036614Y-71821595D01*
X85902039Y-71932039D01*
X85791595Y-72066614D01*
X85709529Y-72220150D01*
X85658992Y-72386747D01*
X85641928Y-72560001D01*
X85641928Y-74759999D01*
X85658992Y-74933253D01*
X85709529Y-75099850D01*
X85791595Y-75253386D01*
X85902039Y-75387961D01*
X86036614Y-75498405D01*
X86190150Y-75580471D01*
X86356747Y-75631008D01*
X86530001Y-75648072D01*
X87402071Y-75648072D01*
X87193172Y-75673816D01*
X86821884Y-75796432D01*
X86562724Y-75934956D01*
X86424767Y-76235162D01*
X87630000Y-77440395D01*
X88835233Y-76235162D01*
X88697276Y-75934956D01*
X88348033Y-75759118D01*
X87971196Y-75654793D01*
X87880201Y-75648072D01*
X88729999Y-75648072D01*
X88903253Y-75631008D01*
X89069850Y-75580471D01*
X89223386Y-75498405D01*
X89357961Y-75387961D01*
X89468405Y-75253386D01*
X89550471Y-75099850D01*
X89601008Y-74933253D01*
X89618072Y-74759999D01*
X89618072Y-72560001D01*
X89601008Y-72386747D01*
X89550471Y-72220150D01*
X89468405Y-72066614D01*
X89357961Y-71932039D01*
X89223386Y-71821595D01*
X89069850Y-71739529D01*
X88903253Y-71688992D01*
X88785000Y-71677345D01*
X88785000Y-70414734D01*
X88790588Y-70358000D01*
X88785000Y-70301263D01*
X88768288Y-70131581D01*
X88702243Y-69913862D01*
X88594994Y-69713212D01*
X88450660Y-69537340D01*
X88406589Y-69501172D01*
X85438833Y-66533417D01*
X85402660Y-66489340D01*
X85226788Y-66345006D01*
X85026138Y-66237757D01*
X84808419Y-66171712D01*
X84638737Y-66155000D01*
X84638734Y-66155000D01*
X84582000Y-66149412D01*
X84525266Y-66155000D01*
X74953718Y-66155000D01*
X74900537Y-66055506D01*
X74821185Y-65958815D01*
X74724494Y-65879463D01*
X74614180Y-65820498D01*
X74494482Y-65784188D01*
X74370000Y-65771928D01*
X71870000Y-65771928D01*
X71745518Y-65784188D01*
X71625820Y-65820498D01*
X71515506Y-65879463D01*
X71418815Y-65958815D01*
X71339463Y-66055506D01*
X71280498Y-66165820D01*
X71244188Y-66285518D01*
X71231928Y-66410000D01*
X71231928Y-68210000D01*
X71244188Y-68334482D01*
X71280498Y-68454180D01*
X71339463Y-68564494D01*
X71418815Y-68661185D01*
X71505001Y-68731915D01*
X71505000Y-69031202D01*
X71489528Y-69060149D01*
X71438992Y-69226745D01*
X71421928Y-69399999D01*
X71421928Y-70300001D01*
X71438992Y-70473255D01*
X71489528Y-70639851D01*
X71571595Y-70793387D01*
X71682038Y-70927962D01*
X71816613Y-71038405D01*
X71970149Y-71120472D01*
X72136745Y-71171008D01*
X72207005Y-71177928D01*
X65839000Y-71177928D01*
X65714518Y-71190188D01*
X65594820Y-71226498D01*
X65484506Y-71285463D01*
X65387815Y-71364815D01*
X65308463Y-71461506D01*
X65249498Y-71571820D01*
X65213188Y-71691518D01*
X65200928Y-71816000D01*
X65200928Y-82616000D01*
X65213188Y-82740482D01*
X65249498Y-82860180D01*
X65308463Y-82970494D01*
X65387815Y-83067185D01*
X65476541Y-83140000D01*
X57001137Y-83140000D01*
X57010781Y-83134845D01*
X57117370Y-83047370D01*
X57139296Y-83020653D01*
X63606877Y-76553072D01*
X64060000Y-76553072D01*
X64184482Y-76540812D01*
X64304180Y-76504502D01*
X64414494Y-76445537D01*
X64511185Y-76366185D01*
X64590537Y-76269494D01*
X64649502Y-76159180D01*
X64685812Y-76039482D01*
X64698072Y-75915000D01*
X64698072Y-75405000D01*
X64685812Y-75280518D01*
X64649502Y-75160820D01*
X64649064Y-75160000D01*
X64649502Y-75159180D01*
X64685812Y-75039482D01*
X64698072Y-74915000D01*
X64698072Y-74405000D01*
X64685812Y-74280518D01*
X64649502Y-74160820D01*
X64649064Y-74160000D01*
X64649502Y-74159180D01*
X64685812Y-74039482D01*
X64698072Y-73915000D01*
X64698072Y-73405000D01*
X64685812Y-73280518D01*
X64649502Y-73160820D01*
X64648511Y-73158966D01*
X64683507Y-73050552D01*
X64695000Y-72945750D01*
X64536250Y-72787000D01*
X64210235Y-72787000D01*
X64184482Y-72779188D01*
X64060000Y-72766928D01*
X63363000Y-72766928D01*
X63363000Y-72553072D01*
X64060000Y-72553072D01*
X64184482Y-72540812D01*
X64210235Y-72533000D01*
X64536250Y-72533000D01*
X64695000Y-72374250D01*
X64683507Y-72269448D01*
X64648511Y-72161034D01*
X64649502Y-72159180D01*
X64685812Y-72039482D01*
X64698072Y-71915000D01*
X64698072Y-71405000D01*
X64685812Y-71280518D01*
X64649502Y-71160820D01*
X64590537Y-71050506D01*
X64511185Y-70953815D01*
X64414494Y-70874463D01*
X64304180Y-70815498D01*
X64184482Y-70779188D01*
X64060000Y-70766928D01*
X63220352Y-70766928D01*
X63240812Y-70699482D01*
X63253072Y-70575000D01*
X63250000Y-70135750D01*
X63091250Y-69977000D01*
X62154500Y-69977000D01*
X62154500Y-69997000D01*
X61900500Y-69997000D01*
X61900500Y-69977000D01*
X61880500Y-69977000D01*
X61880500Y-69723000D01*
X61900500Y-69723000D01*
X61900500Y-68648750D01*
X61873000Y-68621250D01*
X61873000Y-67777000D01*
X62127000Y-67777000D01*
X62127000Y-68826250D01*
X62154500Y-68853750D01*
X62154500Y-69723000D01*
X63091250Y-69723000D01*
X63250000Y-69564250D01*
X63253072Y-69125000D01*
X63240812Y-69000518D01*
X63204502Y-68880820D01*
X63145537Y-68770506D01*
X63110950Y-68728361D01*
X63130537Y-68704494D01*
X63189502Y-68594180D01*
X63225812Y-68474482D01*
X63238072Y-68350000D01*
X63235000Y-67935750D01*
X63076250Y-67777000D01*
X62127000Y-67777000D01*
X61873000Y-67777000D01*
X61853000Y-67777000D01*
X61853000Y-67523000D01*
X61873000Y-67523000D01*
X61873000Y-66473750D01*
X62127000Y-66473750D01*
X62127000Y-67523000D01*
X63076250Y-67523000D01*
X63235000Y-67364250D01*
X63238072Y-66950000D01*
X63225812Y-66825518D01*
X63218678Y-66802000D01*
X65133412Y-66802000D01*
X65155712Y-67028419D01*
X65221757Y-67246138D01*
X65329006Y-67446788D01*
X65473340Y-67622660D01*
X65649212Y-67766994D01*
X65849862Y-67874243D01*
X66067581Y-67940288D01*
X66237263Y-67957000D01*
X67231928Y-67957000D01*
X67231928Y-68210000D01*
X67244188Y-68334482D01*
X67280498Y-68454180D01*
X67339463Y-68564494D01*
X67418815Y-68661185D01*
X67515506Y-68740537D01*
X67625820Y-68799502D01*
X67745518Y-68835812D01*
X67870000Y-68848072D01*
X70370000Y-68848072D01*
X70494482Y-68835812D01*
X70614180Y-68799502D01*
X70724494Y-68740537D01*
X70821185Y-68661185D01*
X70900537Y-68564494D01*
X70959502Y-68454180D01*
X70995812Y-68334482D01*
X71008072Y-68210000D01*
X71008072Y-66410000D01*
X70995812Y-66285518D01*
X70959502Y-66165820D01*
X70900537Y-66055506D01*
X70821185Y-65958815D01*
X70724494Y-65879463D01*
X70614180Y-65820498D01*
X70494482Y-65784188D01*
X70370000Y-65771928D01*
X69135035Y-65771928D01*
X69056138Y-65729757D01*
X68838419Y-65663712D01*
X68668737Y-65647000D01*
X68668734Y-65647000D01*
X68612000Y-65641412D01*
X68555266Y-65647000D01*
X66237263Y-65647000D01*
X66067581Y-65663712D01*
X65849862Y-65729757D01*
X65649212Y-65837006D01*
X65473340Y-65981340D01*
X65329006Y-66157212D01*
X65221757Y-66357862D01*
X65155712Y-66575581D01*
X65133412Y-66802000D01*
X63218678Y-66802000D01*
X63189502Y-66705820D01*
X63130537Y-66595506D01*
X63051185Y-66498815D01*
X62954494Y-66419463D01*
X62844180Y-66360498D01*
X62724482Y-66324188D01*
X62600000Y-66311928D01*
X62285750Y-66315000D01*
X62127000Y-66473750D01*
X61873000Y-66473750D01*
X61714250Y-66315000D01*
X61400000Y-66311928D01*
X61275518Y-66324188D01*
X61155820Y-66360498D01*
X61045506Y-66419463D01*
X60948815Y-66498815D01*
X60924637Y-66528276D01*
X60843387Y-66461595D01*
X60689851Y-66379528D01*
X60523255Y-66328992D01*
X60350001Y-66311928D01*
X59649999Y-66311928D01*
X59476745Y-66328992D01*
X59310149Y-66379528D01*
X59156613Y-66461595D01*
X59022038Y-66572038D01*
X58911595Y-66706613D01*
X58829528Y-66860149D01*
X58778992Y-67026745D01*
X58761928Y-67199999D01*
X58761928Y-67898123D01*
X56933342Y-69726709D01*
X56906631Y-69748630D01*
X56884710Y-69775341D01*
X56884708Y-69775343D01*
X56819155Y-69855219D01*
X56754155Y-69976826D01*
X56737922Y-70030341D01*
X56722336Y-70081723D01*
X56714129Y-70108777D01*
X56700613Y-70246000D01*
X56704001Y-70280397D01*
X56704000Y-72299613D01*
X56700613Y-72334000D01*
X56704000Y-72368387D01*
X56704000Y-72368389D01*
X56714128Y-72471223D01*
X56747376Y-72580826D01*
X56754155Y-72603174D01*
X56819155Y-72724781D01*
X56878608Y-72797224D01*
X56906630Y-72831369D01*
X56933343Y-72853292D01*
X57040051Y-72960000D01*
X56449950Y-72960000D01*
X54939296Y-71449347D01*
X54917370Y-71422630D01*
X54810781Y-71335155D01*
X54689175Y-71270155D01*
X54557224Y-71230128D01*
X54454390Y-71220000D01*
X54454387Y-71220000D01*
X54420000Y-71216613D01*
X54385613Y-71220000D01*
X54288000Y-71220000D01*
X54213201Y-71108056D01*
X54274961Y-71044508D01*
X54436457Y-70795185D01*
X54546209Y-70519146D01*
X54600000Y-70227000D01*
X54600000Y-69727000D01*
X53217000Y-69727000D01*
X53217000Y-69747000D01*
X52963000Y-69747000D01*
X52963000Y-69727000D01*
X51580000Y-69727000D01*
X51580000Y-70020749D01*
X51566145Y-70015010D01*
X51395165Y-69981000D01*
X51220835Y-69981000D01*
X51049855Y-70015010D01*
X50888795Y-70081723D01*
X50762157Y-70166340D01*
X50662776Y-70176128D01*
X50600000Y-70195171D01*
X50600000Y-70122998D01*
X50545252Y-70122998D01*
X50600000Y-70068250D01*
X50588499Y-69964408D01*
X50550066Y-69845375D01*
X50489149Y-69736127D01*
X50436190Y-69673887D01*
X50469119Y-69581874D01*
X50342954Y-69407000D01*
X48952000Y-69407000D01*
X48952000Y-69427000D01*
X48698000Y-69427000D01*
X48698000Y-69407000D01*
X47307046Y-69407000D01*
X47180881Y-69581874D01*
X47260724Y-69804976D01*
X47382631Y-69992764D01*
X47538831Y-70153161D01*
X47541335Y-70154883D01*
X47490475Y-70231000D01*
X45567953Y-70231000D01*
X45681169Y-70153161D01*
X45837369Y-69992764D01*
X45959276Y-69804976D01*
X46039119Y-69581874D01*
X45912954Y-69407000D01*
X44772000Y-69407000D01*
X44772000Y-70415000D01*
X45019408Y-70415000D01*
X45016987Y-70416987D01*
X44938017Y-70513213D01*
X44879336Y-70622996D01*
X44843201Y-70742118D01*
X44831000Y-70866000D01*
X44831000Y-76200000D01*
X44843201Y-76323882D01*
X44879336Y-76443004D01*
X44938017Y-76552787D01*
X45016987Y-76649013D01*
X45113213Y-76727983D01*
X45222996Y-76786664D01*
X45342118Y-76822799D01*
X45466000Y-76835000D01*
X47428807Y-76835000D01*
X47474259Y-76944731D01*
X47541335Y-77045117D01*
X47538831Y-77046839D01*
X47382631Y-77207236D01*
X47260724Y-77395024D01*
X47180881Y-77618126D01*
X47307046Y-77793000D01*
X48698000Y-77793000D01*
X48698000Y-77773000D01*
X48952000Y-77773000D01*
X48952000Y-77793000D01*
X48972000Y-77793000D01*
X48972000Y-78047000D01*
X48952000Y-78047000D01*
X48952000Y-79055000D01*
X49502000Y-79055000D01*
X49720987Y-79008415D01*
X49765000Y-78989497D01*
X49765000Y-79350000D01*
X49777201Y-79473882D01*
X49813336Y-79593004D01*
X49850002Y-79661600D01*
X49850001Y-81503614D01*
X49846614Y-81538001D01*
X49850001Y-81572388D01*
X49850001Y-81572390D01*
X49860129Y-81675224D01*
X49892383Y-81781550D01*
X49900156Y-81807175D01*
X49965156Y-81928782D01*
X49995007Y-81965155D01*
X50052631Y-82035370D01*
X50079344Y-82057293D01*
X51042708Y-83020658D01*
X51064630Y-83047370D01*
X51171219Y-83134845D01*
X51180863Y-83140000D01*
X42060000Y-83140000D01*
X42060000Y-80591185D01*
X43797682Y-80591185D01*
X43811827Y-80662684D01*
X43917858Y-80913868D01*
X44070855Y-81139540D01*
X44264939Y-81331028D01*
X44492651Y-81480972D01*
X44745240Y-81583611D01*
X45013000Y-81635000D01*
X45513000Y-81635000D01*
X45513000Y-80377000D01*
X45767000Y-80377000D01*
X45767000Y-81635000D01*
X46267000Y-81635000D01*
X46534760Y-81583611D01*
X46787349Y-81480972D01*
X47015061Y-81331028D01*
X47209145Y-81139540D01*
X47362142Y-80913868D01*
X47468173Y-80662684D01*
X47482318Y-80591185D01*
X47359656Y-80377000D01*
X45767000Y-80377000D01*
X45513000Y-80377000D01*
X43920344Y-80377000D01*
X43797682Y-80591185D01*
X42060000Y-80591185D01*
X42060000Y-78221874D01*
X43250881Y-78221874D01*
X43330724Y-78444976D01*
X43452631Y-78632764D01*
X43608831Y-78793161D01*
X43793322Y-78920003D01*
X43999013Y-79008415D01*
X44218000Y-79055000D01*
X44438022Y-79055000D01*
X44264939Y-79168972D01*
X44070855Y-79360460D01*
X43917858Y-79586132D01*
X43811827Y-79837316D01*
X43797682Y-79908815D01*
X43920344Y-80123000D01*
X45513000Y-80123000D01*
X45513000Y-78908781D01*
X45576679Y-78865000D01*
X45767000Y-78865000D01*
X45767000Y-80123000D01*
X47359656Y-80123000D01*
X47482318Y-79908815D01*
X47468173Y-79837316D01*
X47362142Y-79586132D01*
X47209145Y-79360460D01*
X47015061Y-79168972D01*
X46787349Y-79019028D01*
X46534760Y-78916389D01*
X46267000Y-78865000D01*
X45767000Y-78865000D01*
X45576679Y-78865000D01*
X45681169Y-78793161D01*
X45837369Y-78632764D01*
X45959276Y-78444976D01*
X46039119Y-78221874D01*
X47180881Y-78221874D01*
X47260724Y-78444976D01*
X47382631Y-78632764D01*
X47538831Y-78793161D01*
X47723322Y-78920003D01*
X47929013Y-79008415D01*
X48148000Y-79055000D01*
X48698000Y-79055000D01*
X48698000Y-78047000D01*
X47307046Y-78047000D01*
X47180881Y-78221874D01*
X46039119Y-78221874D01*
X45912954Y-78047000D01*
X44772000Y-78047000D01*
X44772000Y-78067000D01*
X44518000Y-78067000D01*
X44518000Y-78047000D01*
X43377046Y-78047000D01*
X43250881Y-78221874D01*
X42060000Y-78221874D01*
X42060000Y-77618126D01*
X43250881Y-77618126D01*
X43377046Y-77793000D01*
X44518000Y-77793000D01*
X44518000Y-76785000D01*
X44772000Y-76785000D01*
X44772000Y-77793000D01*
X45912954Y-77793000D01*
X46039119Y-77618126D01*
X45959276Y-77395024D01*
X45837369Y-77207236D01*
X45681169Y-77046839D01*
X45496678Y-76919997D01*
X45290987Y-76831585D01*
X45072000Y-76785000D01*
X44772000Y-76785000D01*
X44518000Y-76785000D01*
X44218000Y-76785000D01*
X43999013Y-76831585D01*
X43793322Y-76919997D01*
X43608831Y-77046839D01*
X43452631Y-77207236D01*
X43330724Y-77395024D01*
X43250881Y-77618126D01*
X42060000Y-77618126D01*
X42060000Y-69581874D01*
X43250881Y-69581874D01*
X43330724Y-69804976D01*
X43452631Y-69992764D01*
X43608831Y-70153161D01*
X43793322Y-70280003D01*
X43999013Y-70368415D01*
X44218000Y-70415000D01*
X44518000Y-70415000D01*
X44518000Y-69407000D01*
X43377046Y-69407000D01*
X43250881Y-69581874D01*
X42060000Y-69581874D01*
X42060000Y-68978126D01*
X43250881Y-68978126D01*
X43377046Y-69153000D01*
X44518000Y-69153000D01*
X44518000Y-69133000D01*
X44772000Y-69133000D01*
X44772000Y-69153000D01*
X45912954Y-69153000D01*
X46039119Y-68978126D01*
X47180881Y-68978126D01*
X47307046Y-69153000D01*
X48698000Y-69153000D01*
X48698000Y-68145000D01*
X48952000Y-68145000D01*
X48952000Y-69153000D01*
X50342954Y-69153000D01*
X50469119Y-68978126D01*
X50389276Y-68755024D01*
X50267369Y-68567236D01*
X50111169Y-68406839D01*
X49926678Y-68279997D01*
X49720987Y-68191585D01*
X49502000Y-68145000D01*
X48952000Y-68145000D01*
X48698000Y-68145000D01*
X48148000Y-68145000D01*
X47929013Y-68191585D01*
X47723322Y-68279997D01*
X47538831Y-68406839D01*
X47382631Y-68567236D01*
X47260724Y-68755024D01*
X47180881Y-68978126D01*
X46039119Y-68978126D01*
X45959276Y-68755024D01*
X45946277Y-68735000D01*
X46267000Y-68735000D01*
X46534760Y-68683611D01*
X46787349Y-68580972D01*
X47015061Y-68431028D01*
X47209145Y-68239540D01*
X47362142Y-68013868D01*
X47468173Y-67762684D01*
X47482318Y-67691185D01*
X50347682Y-67691185D01*
X50361827Y-67762684D01*
X50467858Y-68013868D01*
X50620855Y-68239540D01*
X50814939Y-68431028D01*
X51042651Y-68580972D01*
X51295240Y-68683611D01*
X51563000Y-68735000D01*
X51623821Y-68735000D01*
X51580000Y-68973000D01*
X51580000Y-69473000D01*
X52963000Y-69473000D01*
X52963000Y-69453000D01*
X53217000Y-69453000D01*
X53217000Y-69473000D01*
X54600000Y-69473000D01*
X54600000Y-68973000D01*
X54546209Y-68680854D01*
X54436457Y-68404815D01*
X54274961Y-68155492D01*
X54067928Y-67942466D01*
X53970593Y-67875400D01*
X54018173Y-67762684D01*
X54032318Y-67691185D01*
X53909656Y-67477000D01*
X52317000Y-67477000D01*
X52317000Y-67497000D01*
X52063000Y-67497000D01*
X52063000Y-67477000D01*
X50470344Y-67477000D01*
X50347682Y-67691185D01*
X47482318Y-67691185D01*
X47359656Y-67477000D01*
X45767000Y-67477000D01*
X45767000Y-67497000D01*
X45513000Y-67497000D01*
X45513000Y-67477000D01*
X43920344Y-67477000D01*
X43797682Y-67691185D01*
X43811827Y-67762684D01*
X43917858Y-68013868D01*
X44033386Y-68184273D01*
X43999013Y-68191585D01*
X43793322Y-68279997D01*
X43608831Y-68406839D01*
X43452631Y-68567236D01*
X43330724Y-68755024D01*
X43250881Y-68978126D01*
X42060000Y-68978126D01*
X42060000Y-67008815D01*
X43797682Y-67008815D01*
X43920344Y-67223000D01*
X45513000Y-67223000D01*
X45513000Y-65965000D01*
X45767000Y-65965000D01*
X45767000Y-67223000D01*
X47359656Y-67223000D01*
X47482318Y-67008815D01*
X50347682Y-67008815D01*
X50470344Y-67223000D01*
X52063000Y-67223000D01*
X52063000Y-65965000D01*
X52317000Y-65965000D01*
X52317000Y-67223000D01*
X53909656Y-67223000D01*
X54032318Y-67008815D01*
X54018173Y-66937316D01*
X53912142Y-66686132D01*
X53759145Y-66460460D01*
X53565061Y-66268972D01*
X53337349Y-66119028D01*
X53084760Y-66016389D01*
X52817000Y-65965000D01*
X52317000Y-65965000D01*
X52063000Y-65965000D01*
X51563000Y-65965000D01*
X51295240Y-66016389D01*
X51042651Y-66119028D01*
X50814939Y-66268972D01*
X50620855Y-66460460D01*
X50467858Y-66686132D01*
X50361827Y-66937316D01*
X50347682Y-67008815D01*
X47482318Y-67008815D01*
X47468173Y-66937316D01*
X47362142Y-66686132D01*
X47209145Y-66460460D01*
X47015061Y-66268972D01*
X46787349Y-66119028D01*
X46534760Y-66016389D01*
X46267000Y-65965000D01*
X45767000Y-65965000D01*
X45513000Y-65965000D01*
X45013000Y-65965000D01*
X44745240Y-66016389D01*
X44492651Y-66119028D01*
X44264939Y-66268972D01*
X44070855Y-66460460D01*
X43917858Y-66686132D01*
X43811827Y-66937316D01*
X43797682Y-67008815D01*
X42060000Y-67008815D01*
X42060000Y-65510000D01*
X90390001Y-65510000D01*
X90390000Y-81214721D01*
%TA.AperFunction,Conductor*%
D28*
G36*
X90390000Y-81214721D02*
G01*
X90289612Y-81064480D01*
X90131520Y-80906388D01*
X89945624Y-80782176D01*
X89739067Y-80696617D01*
X89519788Y-80653000D01*
X89296212Y-80653000D01*
X89076933Y-80696617D01*
X88870376Y-80782176D01*
X88684480Y-80906388D01*
X88526388Y-81064480D01*
X88402176Y-81250376D01*
X88316617Y-81456933D01*
X88273000Y-81676212D01*
X88273000Y-81899788D01*
X88316617Y-82119067D01*
X88402176Y-82325624D01*
X88526388Y-82511520D01*
X88684480Y-82669612D01*
X88870376Y-82793824D01*
X89076933Y-82879383D01*
X89296212Y-82923000D01*
X89519788Y-82923000D01*
X89739067Y-82879383D01*
X89945624Y-82793824D01*
X90131520Y-82669612D01*
X90289612Y-82511520D01*
X90390000Y-82361279D01*
X90390000Y-83140000D01*
X75601459Y-83140000D01*
X75690185Y-83067185D01*
X75769537Y-82970494D01*
X75828502Y-82860180D01*
X75864812Y-82740482D01*
X75877072Y-82616000D01*
X75877072Y-81166000D01*
X76750928Y-81166000D01*
X76763188Y-81290482D01*
X76799498Y-81410180D01*
X76858463Y-81520494D01*
X76937815Y-81617185D01*
X77034506Y-81696537D01*
X77144820Y-81755502D01*
X77264518Y-81791812D01*
X77389000Y-81804072D01*
X79403250Y-81801000D01*
X79562000Y-81642250D01*
X79562000Y-80743000D01*
X79816000Y-80743000D01*
X79816000Y-81642250D01*
X79974750Y-81801000D01*
X81989000Y-81804072D01*
X82113482Y-81791812D01*
X82233180Y-81755502D01*
X82343494Y-81696537D01*
X82440185Y-81617185D01*
X82519537Y-81520494D01*
X82578502Y-81410180D01*
X82614812Y-81290482D01*
X82627072Y-81166000D01*
X82624000Y-80901750D01*
X82465250Y-80743000D01*
X79816000Y-80743000D01*
X79562000Y-80743000D01*
X76912750Y-80743000D01*
X76754000Y-80901750D01*
X76750928Y-81166000D01*
X75877072Y-81166000D01*
X75877072Y-78371000D01*
X76750928Y-78371000D01*
X76750928Y-79466000D01*
X76763188Y-79590482D01*
X76799498Y-79710180D01*
X76829335Y-79766000D01*
X76799498Y-79821820D01*
X76763188Y-79941518D01*
X76750928Y-80066000D01*
X76754000Y-80330250D01*
X76912750Y-80489000D01*
X79562000Y-80489000D01*
X79562000Y-80469000D01*
X79816000Y-80469000D01*
X79816000Y-80489000D01*
X82465250Y-80489000D01*
X82624000Y-80330250D01*
X82627072Y-80066000D01*
X82614812Y-79941518D01*
X82578502Y-79821820D01*
X82548665Y-79766000D01*
X82578502Y-79710180D01*
X82614812Y-79590482D01*
X82627072Y-79466000D01*
X82627072Y-79004838D01*
X86424767Y-79004838D01*
X86562724Y-79305044D01*
X86911967Y-79480882D01*
X87288804Y-79585207D01*
X87678753Y-79614009D01*
X88066828Y-79566184D01*
X88438116Y-79443568D01*
X88697276Y-79305044D01*
X88835233Y-79004838D01*
X87630000Y-77799605D01*
X86424767Y-79004838D01*
X82627072Y-79004838D01*
X82627072Y-78366000D01*
X82614812Y-78241518D01*
X82578502Y-78121820D01*
X82548665Y-78066000D01*
X82578502Y-78010180D01*
X82614812Y-77890482D01*
X82627072Y-77766000D01*
X82627072Y-77668753D01*
X85635991Y-77668753D01*
X85683816Y-78056828D01*
X85806432Y-78428116D01*
X85944956Y-78687276D01*
X86245162Y-78825233D01*
X87450395Y-77620000D01*
X87809605Y-77620000D01*
X89014838Y-78825233D01*
X89315044Y-78687276D01*
X89490882Y-78338033D01*
X89595207Y-77961196D01*
X89624009Y-77571247D01*
X89576184Y-77183172D01*
X89453568Y-76811884D01*
X89315044Y-76552724D01*
X89014838Y-76414767D01*
X87809605Y-77620000D01*
X87450395Y-77620000D01*
X86245162Y-76414767D01*
X85944956Y-76552724D01*
X85769118Y-76901967D01*
X85664793Y-77278804D01*
X85635991Y-77668753D01*
X82627072Y-77668753D01*
X82627072Y-76671000D01*
X83954737Y-76671000D01*
X84124419Y-76654288D01*
X84342138Y-76588243D01*
X84542788Y-76480994D01*
X84718660Y-76336660D01*
X84862994Y-76160788D01*
X84970243Y-75960138D01*
X85036288Y-75742419D01*
X85058588Y-75516000D01*
X85036288Y-75289581D01*
X84970243Y-75071862D01*
X84862994Y-74871212D01*
X84718660Y-74695340D01*
X84542788Y-74551006D01*
X84342138Y-74443757D01*
X84124419Y-74377712D01*
X83954737Y-74361000D01*
X82627072Y-74361000D01*
X82627072Y-73266000D01*
X82614812Y-73141518D01*
X82578502Y-73021820D01*
X82519537Y-72911506D01*
X82440185Y-72814815D01*
X82343494Y-72735463D01*
X82233180Y-72676498D01*
X82113482Y-72640188D01*
X81989000Y-72627928D01*
X80134345Y-72627928D01*
X78564833Y-71058417D01*
X78597000Y-71026250D01*
X78597000Y-69977000D01*
X78851000Y-69977000D01*
X78851000Y-71026250D01*
X79009750Y-71185000D01*
X79324000Y-71188072D01*
X79448482Y-71175812D01*
X79568180Y-71139502D01*
X79678494Y-71080537D01*
X79775185Y-71001185D01*
X79854537Y-70904494D01*
X79913502Y-70794180D01*
X79949812Y-70674482D01*
X79962072Y-70550000D01*
X79959000Y-70135750D01*
X79800250Y-69977000D01*
X78851000Y-69977000D01*
X78597000Y-69977000D01*
X78577000Y-69977000D01*
X78577000Y-69723000D01*
X78597000Y-69723000D01*
X78597000Y-68673750D01*
X78851000Y-68673750D01*
X78851000Y-69723000D01*
X79800250Y-69723000D01*
X79959000Y-69564250D01*
X79962072Y-69150000D01*
X79949812Y-69025518D01*
X79913502Y-68905820D01*
X79854537Y-68795506D01*
X79775185Y-68698815D01*
X79678494Y-68619463D01*
X79568180Y-68560498D01*
X79448482Y-68524188D01*
X79324000Y-68511928D01*
X79009750Y-68515000D01*
X78851000Y-68673750D01*
X78597000Y-68673750D01*
X78438250Y-68515000D01*
X78124000Y-68511928D01*
X77999518Y-68524188D01*
X77879820Y-68560498D01*
X77769506Y-68619463D01*
X77672815Y-68698815D01*
X77648637Y-68728276D01*
X77567387Y-68661595D01*
X77413851Y-68579528D01*
X77247255Y-68528992D01*
X77074001Y-68511928D01*
X76373999Y-68511928D01*
X76200745Y-68528992D01*
X76034149Y-68579528D01*
X75880613Y-68661595D01*
X75839909Y-68695000D01*
X75544091Y-68695000D01*
X75503387Y-68661595D01*
X75349851Y-68579528D01*
X75183255Y-68528992D01*
X75010001Y-68511928D01*
X74928635Y-68511928D01*
X74953718Y-68465000D01*
X84103584Y-68465000D01*
X86475001Y-70836418D01*
X86475001Y-71677345D01*
X86356747Y-71688992D01*
X86190150Y-71739529D01*
X86036614Y-71821595D01*
X85902039Y-71932039D01*
X85791595Y-72066614D01*
X85709529Y-72220150D01*
X85658992Y-72386747D01*
X85641928Y-72560001D01*
X85641928Y-74759999D01*
X85658992Y-74933253D01*
X85709529Y-75099850D01*
X85791595Y-75253386D01*
X85902039Y-75387961D01*
X86036614Y-75498405D01*
X86190150Y-75580471D01*
X86356747Y-75631008D01*
X86530001Y-75648072D01*
X87402071Y-75648072D01*
X87193172Y-75673816D01*
X86821884Y-75796432D01*
X86562724Y-75934956D01*
X86424767Y-76235162D01*
X87630000Y-77440395D01*
X88835233Y-76235162D01*
X88697276Y-75934956D01*
X88348033Y-75759118D01*
X87971196Y-75654793D01*
X87880201Y-75648072D01*
X88729999Y-75648072D01*
X88903253Y-75631008D01*
X89069850Y-75580471D01*
X89223386Y-75498405D01*
X89357961Y-75387961D01*
X89468405Y-75253386D01*
X89550471Y-75099850D01*
X89601008Y-74933253D01*
X89618072Y-74759999D01*
X89618072Y-72560001D01*
X89601008Y-72386747D01*
X89550471Y-72220150D01*
X89468405Y-72066614D01*
X89357961Y-71932039D01*
X89223386Y-71821595D01*
X89069850Y-71739529D01*
X88903253Y-71688992D01*
X88785000Y-71677345D01*
X88785000Y-70414734D01*
X88790588Y-70358000D01*
X88785000Y-70301263D01*
X88768288Y-70131581D01*
X88702243Y-69913862D01*
X88594994Y-69713212D01*
X88450660Y-69537340D01*
X88406589Y-69501172D01*
X85438833Y-66533417D01*
X85402660Y-66489340D01*
X85226788Y-66345006D01*
X85026138Y-66237757D01*
X84808419Y-66171712D01*
X84638737Y-66155000D01*
X84638734Y-66155000D01*
X84582000Y-66149412D01*
X84525266Y-66155000D01*
X74953718Y-66155000D01*
X74900537Y-66055506D01*
X74821185Y-65958815D01*
X74724494Y-65879463D01*
X74614180Y-65820498D01*
X74494482Y-65784188D01*
X74370000Y-65771928D01*
X71870000Y-65771928D01*
X71745518Y-65784188D01*
X71625820Y-65820498D01*
X71515506Y-65879463D01*
X71418815Y-65958815D01*
X71339463Y-66055506D01*
X71280498Y-66165820D01*
X71244188Y-66285518D01*
X71231928Y-66410000D01*
X71231928Y-68210000D01*
X71244188Y-68334482D01*
X71280498Y-68454180D01*
X71339463Y-68564494D01*
X71418815Y-68661185D01*
X71505001Y-68731915D01*
X71505000Y-69031202D01*
X71489528Y-69060149D01*
X71438992Y-69226745D01*
X71421928Y-69399999D01*
X71421928Y-70300001D01*
X71438992Y-70473255D01*
X71489528Y-70639851D01*
X71571595Y-70793387D01*
X71682038Y-70927962D01*
X71816613Y-71038405D01*
X71970149Y-71120472D01*
X72136745Y-71171008D01*
X72207005Y-71177928D01*
X65839000Y-71177928D01*
X65714518Y-71190188D01*
X65594820Y-71226498D01*
X65484506Y-71285463D01*
X65387815Y-71364815D01*
X65308463Y-71461506D01*
X65249498Y-71571820D01*
X65213188Y-71691518D01*
X65200928Y-71816000D01*
X65200928Y-82616000D01*
X65213188Y-82740482D01*
X65249498Y-82860180D01*
X65308463Y-82970494D01*
X65387815Y-83067185D01*
X65476541Y-83140000D01*
X57001137Y-83140000D01*
X57010781Y-83134845D01*
X57117370Y-83047370D01*
X57139296Y-83020653D01*
X63606877Y-76553072D01*
X64060000Y-76553072D01*
X64184482Y-76540812D01*
X64304180Y-76504502D01*
X64414494Y-76445537D01*
X64511185Y-76366185D01*
X64590537Y-76269494D01*
X64649502Y-76159180D01*
X64685812Y-76039482D01*
X64698072Y-75915000D01*
X64698072Y-75405000D01*
X64685812Y-75280518D01*
X64649502Y-75160820D01*
X64649064Y-75160000D01*
X64649502Y-75159180D01*
X64685812Y-75039482D01*
X64698072Y-74915000D01*
X64698072Y-74405000D01*
X64685812Y-74280518D01*
X64649502Y-74160820D01*
X64649064Y-74160000D01*
X64649502Y-74159180D01*
X64685812Y-74039482D01*
X64698072Y-73915000D01*
X64698072Y-73405000D01*
X64685812Y-73280518D01*
X64649502Y-73160820D01*
X64648511Y-73158966D01*
X64683507Y-73050552D01*
X64695000Y-72945750D01*
X64536250Y-72787000D01*
X64210235Y-72787000D01*
X64184482Y-72779188D01*
X64060000Y-72766928D01*
X63363000Y-72766928D01*
X63363000Y-72553072D01*
X64060000Y-72553072D01*
X64184482Y-72540812D01*
X64210235Y-72533000D01*
X64536250Y-72533000D01*
X64695000Y-72374250D01*
X64683507Y-72269448D01*
X64648511Y-72161034D01*
X64649502Y-72159180D01*
X64685812Y-72039482D01*
X64698072Y-71915000D01*
X64698072Y-71405000D01*
X64685812Y-71280518D01*
X64649502Y-71160820D01*
X64590537Y-71050506D01*
X64511185Y-70953815D01*
X64414494Y-70874463D01*
X64304180Y-70815498D01*
X64184482Y-70779188D01*
X64060000Y-70766928D01*
X63220352Y-70766928D01*
X63240812Y-70699482D01*
X63253072Y-70575000D01*
X63250000Y-70135750D01*
X63091250Y-69977000D01*
X62154500Y-69977000D01*
X62154500Y-69997000D01*
X61900500Y-69997000D01*
X61900500Y-69977000D01*
X61880500Y-69977000D01*
X61880500Y-69723000D01*
X61900500Y-69723000D01*
X61900500Y-68648750D01*
X61873000Y-68621250D01*
X61873000Y-67777000D01*
X62127000Y-67777000D01*
X62127000Y-68826250D01*
X62154500Y-68853750D01*
X62154500Y-69723000D01*
X63091250Y-69723000D01*
X63250000Y-69564250D01*
X63253072Y-69125000D01*
X63240812Y-69000518D01*
X63204502Y-68880820D01*
X63145537Y-68770506D01*
X63110950Y-68728361D01*
X63130537Y-68704494D01*
X63189502Y-68594180D01*
X63225812Y-68474482D01*
X63238072Y-68350000D01*
X63235000Y-67935750D01*
X63076250Y-67777000D01*
X62127000Y-67777000D01*
X61873000Y-67777000D01*
X61853000Y-67777000D01*
X61853000Y-67523000D01*
X61873000Y-67523000D01*
X61873000Y-66473750D01*
X62127000Y-66473750D01*
X62127000Y-67523000D01*
X63076250Y-67523000D01*
X63235000Y-67364250D01*
X63238072Y-66950000D01*
X63225812Y-66825518D01*
X63218678Y-66802000D01*
X65133412Y-66802000D01*
X65155712Y-67028419D01*
X65221757Y-67246138D01*
X65329006Y-67446788D01*
X65473340Y-67622660D01*
X65649212Y-67766994D01*
X65849862Y-67874243D01*
X66067581Y-67940288D01*
X66237263Y-67957000D01*
X67231928Y-67957000D01*
X67231928Y-68210000D01*
X67244188Y-68334482D01*
X67280498Y-68454180D01*
X67339463Y-68564494D01*
X67418815Y-68661185D01*
X67515506Y-68740537D01*
X67625820Y-68799502D01*
X67745518Y-68835812D01*
X67870000Y-68848072D01*
X70370000Y-68848072D01*
X70494482Y-68835812D01*
X70614180Y-68799502D01*
X70724494Y-68740537D01*
X70821185Y-68661185D01*
X70900537Y-68564494D01*
X70959502Y-68454180D01*
X70995812Y-68334482D01*
X71008072Y-68210000D01*
X71008072Y-66410000D01*
X70995812Y-66285518D01*
X70959502Y-66165820D01*
X70900537Y-66055506D01*
X70821185Y-65958815D01*
X70724494Y-65879463D01*
X70614180Y-65820498D01*
X70494482Y-65784188D01*
X70370000Y-65771928D01*
X69135035Y-65771928D01*
X69056138Y-65729757D01*
X68838419Y-65663712D01*
X68668737Y-65647000D01*
X68668734Y-65647000D01*
X68612000Y-65641412D01*
X68555266Y-65647000D01*
X66237263Y-65647000D01*
X66067581Y-65663712D01*
X65849862Y-65729757D01*
X65649212Y-65837006D01*
X65473340Y-65981340D01*
X65329006Y-66157212D01*
X65221757Y-66357862D01*
X65155712Y-66575581D01*
X65133412Y-66802000D01*
X63218678Y-66802000D01*
X63189502Y-66705820D01*
X63130537Y-66595506D01*
X63051185Y-66498815D01*
X62954494Y-66419463D01*
X62844180Y-66360498D01*
X62724482Y-66324188D01*
X62600000Y-66311928D01*
X62285750Y-66315000D01*
X62127000Y-66473750D01*
X61873000Y-66473750D01*
X61714250Y-66315000D01*
X61400000Y-66311928D01*
X61275518Y-66324188D01*
X61155820Y-66360498D01*
X61045506Y-66419463D01*
X60948815Y-66498815D01*
X60924637Y-66528276D01*
X60843387Y-66461595D01*
X60689851Y-66379528D01*
X60523255Y-66328992D01*
X60350001Y-66311928D01*
X59649999Y-66311928D01*
X59476745Y-66328992D01*
X59310149Y-66379528D01*
X59156613Y-66461595D01*
X59022038Y-66572038D01*
X58911595Y-66706613D01*
X58829528Y-66860149D01*
X58778992Y-67026745D01*
X58761928Y-67199999D01*
X58761928Y-67898123D01*
X56933342Y-69726709D01*
X56906631Y-69748630D01*
X56884710Y-69775341D01*
X56884708Y-69775343D01*
X56819155Y-69855219D01*
X56754155Y-69976826D01*
X56737922Y-70030341D01*
X56722336Y-70081723D01*
X56714129Y-70108777D01*
X56700613Y-70246000D01*
X56704001Y-70280397D01*
X56704000Y-72299613D01*
X56700613Y-72334000D01*
X56704000Y-72368387D01*
X56704000Y-72368389D01*
X56714128Y-72471223D01*
X56747376Y-72580826D01*
X56754155Y-72603174D01*
X56819155Y-72724781D01*
X56878608Y-72797224D01*
X56906630Y-72831369D01*
X56933343Y-72853292D01*
X57040051Y-72960000D01*
X56449950Y-72960000D01*
X54939296Y-71449347D01*
X54917370Y-71422630D01*
X54810781Y-71335155D01*
X54689175Y-71270155D01*
X54557224Y-71230128D01*
X54454390Y-71220000D01*
X54454387Y-71220000D01*
X54420000Y-71216613D01*
X54385613Y-71220000D01*
X54288000Y-71220000D01*
X54213201Y-71108056D01*
X54274961Y-71044508D01*
X54436457Y-70795185D01*
X54546209Y-70519146D01*
X54600000Y-70227000D01*
X54600000Y-69727000D01*
X53217000Y-69727000D01*
X53217000Y-69747000D01*
X52963000Y-69747000D01*
X52963000Y-69727000D01*
X51580000Y-69727000D01*
X51580000Y-70020749D01*
X51566145Y-70015010D01*
X51395165Y-69981000D01*
X51220835Y-69981000D01*
X51049855Y-70015010D01*
X50888795Y-70081723D01*
X50762157Y-70166340D01*
X50662776Y-70176128D01*
X50600000Y-70195171D01*
X50600000Y-70122998D01*
X50545252Y-70122998D01*
X50600000Y-70068250D01*
X50588499Y-69964408D01*
X50550066Y-69845375D01*
X50489149Y-69736127D01*
X50436190Y-69673887D01*
X50469119Y-69581874D01*
X50342954Y-69407000D01*
X48952000Y-69407000D01*
X48952000Y-69427000D01*
X48698000Y-69427000D01*
X48698000Y-69407000D01*
X47307046Y-69407000D01*
X47180881Y-69581874D01*
X47260724Y-69804976D01*
X47382631Y-69992764D01*
X47538831Y-70153161D01*
X47541335Y-70154883D01*
X47490475Y-70231000D01*
X45567953Y-70231000D01*
X45681169Y-70153161D01*
X45837369Y-69992764D01*
X45959276Y-69804976D01*
X46039119Y-69581874D01*
X45912954Y-69407000D01*
X44772000Y-69407000D01*
X44772000Y-70415000D01*
X45019408Y-70415000D01*
X45016987Y-70416987D01*
X44938017Y-70513213D01*
X44879336Y-70622996D01*
X44843201Y-70742118D01*
X44831000Y-70866000D01*
X44831000Y-76200000D01*
X44843201Y-76323882D01*
X44879336Y-76443004D01*
X44938017Y-76552787D01*
X45016987Y-76649013D01*
X45113213Y-76727983D01*
X45222996Y-76786664D01*
X45342118Y-76822799D01*
X45466000Y-76835000D01*
X47428807Y-76835000D01*
X47474259Y-76944731D01*
X47541335Y-77045117D01*
X47538831Y-77046839D01*
X47382631Y-77207236D01*
X47260724Y-77395024D01*
X47180881Y-77618126D01*
X47307046Y-77793000D01*
X48698000Y-77793000D01*
X48698000Y-77773000D01*
X48952000Y-77773000D01*
X48952000Y-77793000D01*
X48972000Y-77793000D01*
X48972000Y-78047000D01*
X48952000Y-78047000D01*
X48952000Y-79055000D01*
X49502000Y-79055000D01*
X49720987Y-79008415D01*
X49765000Y-78989497D01*
X49765000Y-79350000D01*
X49777201Y-79473882D01*
X49813336Y-79593004D01*
X49850002Y-79661600D01*
X49850001Y-81503614D01*
X49846614Y-81538001D01*
X49850001Y-81572388D01*
X49850001Y-81572390D01*
X49860129Y-81675224D01*
X49892383Y-81781550D01*
X49900156Y-81807175D01*
X49965156Y-81928782D01*
X49995007Y-81965155D01*
X50052631Y-82035370D01*
X50079344Y-82057293D01*
X51042708Y-83020658D01*
X51064630Y-83047370D01*
X51171219Y-83134845D01*
X51180863Y-83140000D01*
X42060000Y-83140000D01*
X42060000Y-80591185D01*
X43797682Y-80591185D01*
X43811827Y-80662684D01*
X43917858Y-80913868D01*
X44070855Y-81139540D01*
X44264939Y-81331028D01*
X44492651Y-81480972D01*
X44745240Y-81583611D01*
X45013000Y-81635000D01*
X45513000Y-81635000D01*
X45513000Y-80377000D01*
X45767000Y-80377000D01*
X45767000Y-81635000D01*
X46267000Y-81635000D01*
X46534760Y-81583611D01*
X46787349Y-81480972D01*
X47015061Y-81331028D01*
X47209145Y-81139540D01*
X47362142Y-80913868D01*
X47468173Y-80662684D01*
X47482318Y-80591185D01*
X47359656Y-80377000D01*
X45767000Y-80377000D01*
X45513000Y-80377000D01*
X43920344Y-80377000D01*
X43797682Y-80591185D01*
X42060000Y-80591185D01*
X42060000Y-78221874D01*
X43250881Y-78221874D01*
X43330724Y-78444976D01*
X43452631Y-78632764D01*
X43608831Y-78793161D01*
X43793322Y-78920003D01*
X43999013Y-79008415D01*
X44218000Y-79055000D01*
X44438022Y-79055000D01*
X44264939Y-79168972D01*
X44070855Y-79360460D01*
X43917858Y-79586132D01*
X43811827Y-79837316D01*
X43797682Y-79908815D01*
X43920344Y-80123000D01*
X45513000Y-80123000D01*
X45513000Y-78908781D01*
X45576679Y-78865000D01*
X45767000Y-78865000D01*
X45767000Y-80123000D01*
X47359656Y-80123000D01*
X47482318Y-79908815D01*
X47468173Y-79837316D01*
X47362142Y-79586132D01*
X47209145Y-79360460D01*
X47015061Y-79168972D01*
X46787349Y-79019028D01*
X46534760Y-78916389D01*
X46267000Y-78865000D01*
X45767000Y-78865000D01*
X45576679Y-78865000D01*
X45681169Y-78793161D01*
X45837369Y-78632764D01*
X45959276Y-78444976D01*
X46039119Y-78221874D01*
X47180881Y-78221874D01*
X47260724Y-78444976D01*
X47382631Y-78632764D01*
X47538831Y-78793161D01*
X47723322Y-78920003D01*
X47929013Y-79008415D01*
X48148000Y-79055000D01*
X48698000Y-79055000D01*
X48698000Y-78047000D01*
X47307046Y-78047000D01*
X47180881Y-78221874D01*
X46039119Y-78221874D01*
X45912954Y-78047000D01*
X44772000Y-78047000D01*
X44772000Y-78067000D01*
X44518000Y-78067000D01*
X44518000Y-78047000D01*
X43377046Y-78047000D01*
X43250881Y-78221874D01*
X42060000Y-78221874D01*
X42060000Y-77618126D01*
X43250881Y-77618126D01*
X43377046Y-77793000D01*
X44518000Y-77793000D01*
X44518000Y-76785000D01*
X44772000Y-76785000D01*
X44772000Y-77793000D01*
X45912954Y-77793000D01*
X46039119Y-77618126D01*
X45959276Y-77395024D01*
X45837369Y-77207236D01*
X45681169Y-77046839D01*
X45496678Y-76919997D01*
X45290987Y-76831585D01*
X45072000Y-76785000D01*
X44772000Y-76785000D01*
X44518000Y-76785000D01*
X44218000Y-76785000D01*
X43999013Y-76831585D01*
X43793322Y-76919997D01*
X43608831Y-77046839D01*
X43452631Y-77207236D01*
X43330724Y-77395024D01*
X43250881Y-77618126D01*
X42060000Y-77618126D01*
X42060000Y-69581874D01*
X43250881Y-69581874D01*
X43330724Y-69804976D01*
X43452631Y-69992764D01*
X43608831Y-70153161D01*
X43793322Y-70280003D01*
X43999013Y-70368415D01*
X44218000Y-70415000D01*
X44518000Y-70415000D01*
X44518000Y-69407000D01*
X43377046Y-69407000D01*
X43250881Y-69581874D01*
X42060000Y-69581874D01*
X42060000Y-68978126D01*
X43250881Y-68978126D01*
X43377046Y-69153000D01*
X44518000Y-69153000D01*
X44518000Y-69133000D01*
X44772000Y-69133000D01*
X44772000Y-69153000D01*
X45912954Y-69153000D01*
X46039119Y-68978126D01*
X47180881Y-68978126D01*
X47307046Y-69153000D01*
X48698000Y-69153000D01*
X48698000Y-68145000D01*
X48952000Y-68145000D01*
X48952000Y-69153000D01*
X50342954Y-69153000D01*
X50469119Y-68978126D01*
X50389276Y-68755024D01*
X50267369Y-68567236D01*
X50111169Y-68406839D01*
X49926678Y-68279997D01*
X49720987Y-68191585D01*
X49502000Y-68145000D01*
X48952000Y-68145000D01*
X48698000Y-68145000D01*
X48148000Y-68145000D01*
X47929013Y-68191585D01*
X47723322Y-68279997D01*
X47538831Y-68406839D01*
X47382631Y-68567236D01*
X47260724Y-68755024D01*
X47180881Y-68978126D01*
X46039119Y-68978126D01*
X45959276Y-68755024D01*
X45946277Y-68735000D01*
X46267000Y-68735000D01*
X46534760Y-68683611D01*
X46787349Y-68580972D01*
X47015061Y-68431028D01*
X47209145Y-68239540D01*
X47362142Y-68013868D01*
X47468173Y-67762684D01*
X47482318Y-67691185D01*
X50347682Y-67691185D01*
X50361827Y-67762684D01*
X50467858Y-68013868D01*
X50620855Y-68239540D01*
X50814939Y-68431028D01*
X51042651Y-68580972D01*
X51295240Y-68683611D01*
X51563000Y-68735000D01*
X51623821Y-68735000D01*
X51580000Y-68973000D01*
X51580000Y-69473000D01*
X52963000Y-69473000D01*
X52963000Y-69453000D01*
X53217000Y-69453000D01*
X53217000Y-69473000D01*
X54600000Y-69473000D01*
X54600000Y-68973000D01*
X54546209Y-68680854D01*
X54436457Y-68404815D01*
X54274961Y-68155492D01*
X54067928Y-67942466D01*
X53970593Y-67875400D01*
X54018173Y-67762684D01*
X54032318Y-67691185D01*
X53909656Y-67477000D01*
X52317000Y-67477000D01*
X52317000Y-67497000D01*
X52063000Y-67497000D01*
X52063000Y-67477000D01*
X50470344Y-67477000D01*
X50347682Y-67691185D01*
X47482318Y-67691185D01*
X47359656Y-67477000D01*
X45767000Y-67477000D01*
X45767000Y-67497000D01*
X45513000Y-67497000D01*
X45513000Y-67477000D01*
X43920344Y-67477000D01*
X43797682Y-67691185D01*
X43811827Y-67762684D01*
X43917858Y-68013868D01*
X44033386Y-68184273D01*
X43999013Y-68191585D01*
X43793322Y-68279997D01*
X43608831Y-68406839D01*
X43452631Y-68567236D01*
X43330724Y-68755024D01*
X43250881Y-68978126D01*
X42060000Y-68978126D01*
X42060000Y-67008815D01*
X43797682Y-67008815D01*
X43920344Y-67223000D01*
X45513000Y-67223000D01*
X45513000Y-65965000D01*
X45767000Y-65965000D01*
X45767000Y-67223000D01*
X47359656Y-67223000D01*
X47482318Y-67008815D01*
X50347682Y-67008815D01*
X50470344Y-67223000D01*
X52063000Y-67223000D01*
X52063000Y-65965000D01*
X52317000Y-65965000D01*
X52317000Y-67223000D01*
X53909656Y-67223000D01*
X54032318Y-67008815D01*
X54018173Y-66937316D01*
X53912142Y-66686132D01*
X53759145Y-66460460D01*
X53565061Y-66268972D01*
X53337349Y-66119028D01*
X53084760Y-66016389D01*
X52817000Y-65965000D01*
X52317000Y-65965000D01*
X52063000Y-65965000D01*
X51563000Y-65965000D01*
X51295240Y-66016389D01*
X51042651Y-66119028D01*
X50814939Y-66268972D01*
X50620855Y-66460460D01*
X50467858Y-66686132D01*
X50361827Y-66937316D01*
X50347682Y-67008815D01*
X47482318Y-67008815D01*
X47468173Y-66937316D01*
X47362142Y-66686132D01*
X47209145Y-66460460D01*
X47015061Y-66268972D01*
X46787349Y-66119028D01*
X46534760Y-66016389D01*
X46267000Y-65965000D01*
X45767000Y-65965000D01*
X45513000Y-65965000D01*
X45013000Y-65965000D01*
X44745240Y-66016389D01*
X44492651Y-66119028D01*
X44264939Y-66268972D01*
X44070855Y-66460460D01*
X43917858Y-66686132D01*
X43811827Y-66937316D01*
X43797682Y-67008815D01*
X42060000Y-67008815D01*
X42060000Y-65510000D01*
X90390001Y-65510000D01*
X90390000Y-81214721D01*
G37*
%TD.AperFunction*%
D27*
X61022001Y-71909451D02*
X61022000Y-72517612D01*
X61018613Y-72552000D01*
X61022000Y-72586387D01*
X61022000Y-72586389D01*
X61032128Y-72689223D01*
X61067145Y-72804657D01*
X61072155Y-72821174D01*
X61137155Y-72942781D01*
X61183987Y-72999845D01*
X61224630Y-73049369D01*
X61251343Y-73071292D01*
X62140050Y-73960000D01*
X61518387Y-73960000D01*
X61484000Y-73956613D01*
X61449613Y-73960000D01*
X61449610Y-73960000D01*
X61346776Y-73970128D01*
X61214825Y-74010155D01*
X61093218Y-74075155D01*
X61031493Y-74125812D01*
X60986630Y-74162630D01*
X60964708Y-74189342D01*
X60850634Y-74303416D01*
X60701855Y-74333010D01*
X60540795Y-74399723D01*
X60395845Y-74496576D01*
X60272576Y-74619845D01*
X60175723Y-74764795D01*
X60109010Y-74925855D01*
X60075000Y-75096835D01*
X60075000Y-75271165D01*
X60109010Y-75442145D01*
X60175723Y-75603205D01*
X60272576Y-75748155D01*
X60395845Y-75871424D01*
X60540795Y-75968277D01*
X60701855Y-76034990D01*
X60872835Y-76069000D01*
X61047165Y-76069000D01*
X61218145Y-76034990D01*
X61379205Y-75968277D01*
X61524155Y-75871424D01*
X61647424Y-75748155D01*
X61744277Y-75603205D01*
X61810990Y-75442145D01*
X61827330Y-75360000D01*
X62326360Y-75360000D01*
X62321928Y-75405000D01*
X62321928Y-75858123D01*
X56330051Y-81850000D01*
X51851950Y-81850000D01*
X51636950Y-81635000D01*
X52063000Y-81635000D01*
X52063000Y-80377000D01*
X52317000Y-80377000D01*
X52317000Y-81635000D01*
X52817000Y-81635000D01*
X53084760Y-81583611D01*
X53337349Y-81480972D01*
X53565061Y-81331028D01*
X53759145Y-81139540D01*
X53912142Y-80913868D01*
X54018173Y-80662684D01*
X54032318Y-80591185D01*
X53909656Y-80377000D01*
X52317000Y-80377000D01*
X52063000Y-80377000D01*
X52043000Y-80377000D01*
X52043000Y-80123000D01*
X52063000Y-80123000D01*
X52063000Y-80103000D01*
X52317000Y-80103000D01*
X52317000Y-80123000D01*
X53909656Y-80123000D01*
X53988687Y-79985000D01*
X54250000Y-79985000D01*
X54373882Y-79972799D01*
X54493004Y-79936664D01*
X54602787Y-79877983D01*
X54699013Y-79799013D01*
X54777983Y-79702787D01*
X54836664Y-79593004D01*
X54872799Y-79473882D01*
X54885000Y-79350000D01*
X54885000Y-76700000D01*
X54872799Y-76576118D01*
X54843642Y-76480000D01*
X55135613Y-76480000D01*
X55170000Y-76483387D01*
X55204387Y-76480000D01*
X55204390Y-76480000D01*
X55307224Y-76469872D01*
X55439175Y-76429845D01*
X55560781Y-76364845D01*
X55667370Y-76277370D01*
X55689296Y-76250653D01*
X56579950Y-75360000D01*
X57226360Y-75360000D01*
X57221928Y-75405000D01*
X57221928Y-75915000D01*
X57234188Y-76039482D01*
X57270498Y-76159180D01*
X57329463Y-76269494D01*
X57408815Y-76366185D01*
X57505506Y-76445537D01*
X57563692Y-76476639D01*
X57535010Y-76620835D01*
X57535010Y-76795165D01*
X57569020Y-76966145D01*
X57635733Y-77127205D01*
X57732586Y-77272155D01*
X57855855Y-77395424D01*
X58000805Y-77492277D01*
X58161865Y-77558990D01*
X58332845Y-77593000D01*
X58507175Y-77593000D01*
X58678155Y-77558990D01*
X58839215Y-77492277D01*
X58984165Y-77395424D01*
X59107434Y-77272155D01*
X59204287Y-77127205D01*
X59271000Y-76966145D01*
X59305010Y-76795165D01*
X59305010Y-76620835D01*
X59274404Y-76466966D01*
X59314494Y-76445537D01*
X59411185Y-76366185D01*
X59490537Y-76269494D01*
X59549502Y-76159180D01*
X59585812Y-76039482D01*
X59598072Y-75915000D01*
X59598072Y-75405000D01*
X59585812Y-75280518D01*
X59549502Y-75160820D01*
X59549064Y-75160000D01*
X59549502Y-75159180D01*
X59585812Y-75039482D01*
X59598072Y-74915000D01*
X59598072Y-74405000D01*
X59585812Y-74280518D01*
X59549502Y-74160820D01*
X59549064Y-74160000D01*
X59549502Y-74159180D01*
X59585812Y-74039482D01*
X59598072Y-73915000D01*
X59598072Y-73405000D01*
X59585812Y-73280518D01*
X59549502Y-73160820D01*
X59549064Y-73160000D01*
X59549502Y-73159180D01*
X59585812Y-73039482D01*
X59598072Y-72915000D01*
X59598072Y-72405000D01*
X59585812Y-72280518D01*
X59549502Y-72160820D01*
X59549064Y-72160000D01*
X59549502Y-72159180D01*
X59585812Y-72039482D01*
X59598072Y-71915000D01*
X59598072Y-71405000D01*
X59585812Y-71280518D01*
X59568617Y-71223832D01*
X59582571Y-71209878D01*
X59615000Y-71213072D01*
X60290000Y-71213072D01*
X60322429Y-71209878D01*
X61022001Y-71909451D01*
%TA.AperFunction,Conductor*%
D28*
G36*
X61022001Y-71909451D02*
G01*
X61022000Y-72517612D01*
X61018613Y-72552000D01*
X61022000Y-72586387D01*
X61022000Y-72586389D01*
X61032128Y-72689223D01*
X61067145Y-72804657D01*
X61072155Y-72821174D01*
X61137155Y-72942781D01*
X61183987Y-72999845D01*
X61224630Y-73049369D01*
X61251343Y-73071292D01*
X62140050Y-73960000D01*
X61518387Y-73960000D01*
X61484000Y-73956613D01*
X61449613Y-73960000D01*
X61449610Y-73960000D01*
X61346776Y-73970128D01*
X61214825Y-74010155D01*
X61093218Y-74075155D01*
X61031493Y-74125812D01*
X60986630Y-74162630D01*
X60964708Y-74189342D01*
X60850634Y-74303416D01*
X60701855Y-74333010D01*
X60540795Y-74399723D01*
X60395845Y-74496576D01*
X60272576Y-74619845D01*
X60175723Y-74764795D01*
X60109010Y-74925855D01*
X60075000Y-75096835D01*
X60075000Y-75271165D01*
X60109010Y-75442145D01*
X60175723Y-75603205D01*
X60272576Y-75748155D01*
X60395845Y-75871424D01*
X60540795Y-75968277D01*
X60701855Y-76034990D01*
X60872835Y-76069000D01*
X61047165Y-76069000D01*
X61218145Y-76034990D01*
X61379205Y-75968277D01*
X61524155Y-75871424D01*
X61647424Y-75748155D01*
X61744277Y-75603205D01*
X61810990Y-75442145D01*
X61827330Y-75360000D01*
X62326360Y-75360000D01*
X62321928Y-75405000D01*
X62321928Y-75858123D01*
X56330051Y-81850000D01*
X51851950Y-81850000D01*
X51636950Y-81635000D01*
X52063000Y-81635000D01*
X52063000Y-80377000D01*
X52317000Y-80377000D01*
X52317000Y-81635000D01*
X52817000Y-81635000D01*
X53084760Y-81583611D01*
X53337349Y-81480972D01*
X53565061Y-81331028D01*
X53759145Y-81139540D01*
X53912142Y-80913868D01*
X54018173Y-80662684D01*
X54032318Y-80591185D01*
X53909656Y-80377000D01*
X52317000Y-80377000D01*
X52063000Y-80377000D01*
X52043000Y-80377000D01*
X52043000Y-80123000D01*
X52063000Y-80123000D01*
X52063000Y-80103000D01*
X52317000Y-80103000D01*
X52317000Y-80123000D01*
X53909656Y-80123000D01*
X53988687Y-79985000D01*
X54250000Y-79985000D01*
X54373882Y-79972799D01*
X54493004Y-79936664D01*
X54602787Y-79877983D01*
X54699013Y-79799013D01*
X54777983Y-79702787D01*
X54836664Y-79593004D01*
X54872799Y-79473882D01*
X54885000Y-79350000D01*
X54885000Y-76700000D01*
X54872799Y-76576118D01*
X54843642Y-76480000D01*
X55135613Y-76480000D01*
X55170000Y-76483387D01*
X55204387Y-76480000D01*
X55204390Y-76480000D01*
X55307224Y-76469872D01*
X55439175Y-76429845D01*
X55560781Y-76364845D01*
X55667370Y-76277370D01*
X55689296Y-76250653D01*
X56579950Y-75360000D01*
X57226360Y-75360000D01*
X57221928Y-75405000D01*
X57221928Y-75915000D01*
X57234188Y-76039482D01*
X57270498Y-76159180D01*
X57329463Y-76269494D01*
X57408815Y-76366185D01*
X57505506Y-76445537D01*
X57563692Y-76476639D01*
X57535010Y-76620835D01*
X57535010Y-76795165D01*
X57569020Y-76966145D01*
X57635733Y-77127205D01*
X57732586Y-77272155D01*
X57855855Y-77395424D01*
X58000805Y-77492277D01*
X58161865Y-77558990D01*
X58332845Y-77593000D01*
X58507175Y-77593000D01*
X58678155Y-77558990D01*
X58839215Y-77492277D01*
X58984165Y-77395424D01*
X59107434Y-77272155D01*
X59204287Y-77127205D01*
X59271000Y-76966145D01*
X59305010Y-76795165D01*
X59305010Y-76620835D01*
X59274404Y-76466966D01*
X59314494Y-76445537D01*
X59411185Y-76366185D01*
X59490537Y-76269494D01*
X59549502Y-76159180D01*
X59585812Y-76039482D01*
X59598072Y-75915000D01*
X59598072Y-75405000D01*
X59585812Y-75280518D01*
X59549502Y-75160820D01*
X59549064Y-75160000D01*
X59549502Y-75159180D01*
X59585812Y-75039482D01*
X59598072Y-74915000D01*
X59598072Y-74405000D01*
X59585812Y-74280518D01*
X59549502Y-74160820D01*
X59549064Y-74160000D01*
X59549502Y-74159180D01*
X59585812Y-74039482D01*
X59598072Y-73915000D01*
X59598072Y-73405000D01*
X59585812Y-73280518D01*
X59549502Y-73160820D01*
X59549064Y-73160000D01*
X59549502Y-73159180D01*
X59585812Y-73039482D01*
X59598072Y-72915000D01*
X59598072Y-72405000D01*
X59585812Y-72280518D01*
X59549502Y-72160820D01*
X59549064Y-72160000D01*
X59549502Y-72159180D01*
X59585812Y-72039482D01*
X59598072Y-71915000D01*
X59598072Y-71405000D01*
X59585812Y-71280518D01*
X59568617Y-71223832D01*
X59582571Y-71209878D01*
X59615000Y-71213072D01*
X60290000Y-71213072D01*
X60322429Y-71209878D01*
X61022001Y-71909451D01*
G37*
%TD.AperFunction*%
%TD*%
M02*
